<svg width="22" height="22" viewBox="0 0 22 22" fill="none" xmlns="http://www.w3.org/2000/svg">
<path d="M11 2.0625C9.23233 2.0625 7.50436 2.58668 6.0346 3.56874C4.56483 4.55081 3.41929 5.94665 2.74283 7.57977C2.06637 9.21288 1.88938 11.0099 2.23424 12.7436C2.57909 14.4773 3.43031 16.0698 4.68024 17.3198C5.93017 18.5697 7.52268 19.4209 9.25638 19.7658C10.9901 20.1106 12.7871 19.9336 14.4202 19.2572C16.0534 18.5807 17.4492 17.4352 18.4313 15.9654C19.4133 14.4956 19.9375 12.7677 19.9375 11C19.935 8.6304 18.9926 6.35856 17.317 4.683C15.6414 3.00743 13.3696 2.065 11 2.0625ZM14.9239 10.1114L11.4864 13.5489C11.4226 13.6128 11.3467 13.6635 11.2633 13.6981C11.1798 13.7327 11.0904 13.7505 11 13.7505C10.9097 13.7505 10.8202 13.7327 10.7367 13.6981C10.6533 13.6635 10.5774 13.6128 10.5136 13.5489L7.0761 10.1114C6.94709 9.9824 6.87462 9.80744 6.87462 9.625C6.87462 9.44256 6.94709 9.2676 7.0761 9.13859C7.2051 9.00959 7.38007 8.93712 7.5625 8.93712C7.74494 8.93712 7.91991 9.00959 8.04891 9.13859L11 12.0905L13.9511 9.13859C14.015 9.07472 14.0908 9.02405 14.1743 8.98948C14.2577 8.95491 14.3472 8.93712 14.4375 8.93712C14.5278 8.93712 14.6173 8.95491 14.7007 8.98948C14.7842 9.02405 14.86 9.07472 14.9239 9.13859C14.9878 9.20247 15.0385 9.2783 15.073 9.36176C15.1076 9.44522 15.1254 9.53467 15.1254 9.625C15.1254 9.71533 15.1076 9.80478 15.073 9.88824C15.0385 9.9717 14.9878 10.0475 14.9239 10.1114Z" fill="#7A7979"/>
</svg>
