<svg width="19" height="19" viewBox="0 0 19 19" fill="none" xmlns="http://www.w3.org/2000/svg">
<g clip-path="url(#clip0_29_3399)">
<path d="M17.375 8.37501H15.3577L12.3125 5.32977C12.2084 5.22485 12.0845 5.14167 11.948 5.08506C11.8115 5.02844 11.6651 4.99953 11.5173 5.00001H3.61344C3.42865 5.00035 3.2468 5.0462 3.08394 5.13352C2.92108 5.22083 2.78224 5.34692 2.67969 5.50063L0.594219 8.62532C0.532943 8.71792 0.500183 8.82647 0.5 8.93751V12.3125C0.5 12.6109 0.618526 12.897 0.829505 13.108C1.04048 13.319 1.32663 13.4375 1.625 13.4375H2.82031C2.94423 13.9215 3.22571 14.3505 3.62036 14.6568C4.01502 14.9631 4.5004 15.1294 5 15.1294C5.4996 15.1294 5.98498 14.9631 6.37964 14.6568C6.77429 14.3505 7.05577 13.9215 7.17969 13.4375H11.8203C11.9442 13.9215 12.2257 14.3505 12.6204 14.6568C13.015 14.9631 13.5004 15.1294 14 15.1294C14.4996 15.1294 14.985 14.9631 15.3796 14.6568C15.7743 14.3505 16.0558 13.9215 16.1797 13.4375H17.375C17.6734 13.4375 17.9595 13.319 18.1705 13.108C18.3815 12.897 18.5 12.6109 18.5 12.3125V9.50001C18.5 9.20164 18.3815 8.91549 18.1705 8.70451C17.9595 8.49353 17.6734 8.37501 17.375 8.37501ZM3.61344 6.12501H11.5173L13.7673 8.37501H2.11719L3.61344 6.12501ZM5 14C4.7775 14 4.55999 13.934 4.37498 13.8104C4.18998 13.6868 4.04578 13.5111 3.96064 13.3055C3.87549 13.1 3.85321 12.8738 3.89662 12.6555C3.94002 12.4373 4.04717 12.2368 4.2045 12.0795C4.36184 11.9222 4.56229 11.815 4.78052 11.7716C4.99875 11.7282 5.22495 11.7505 5.43052 11.8356C5.63609 11.9208 5.81179 12.065 5.9354 12.25C6.05902 12.435 6.125 12.6525 6.125 12.875C6.125 13.1734 6.00647 13.4595 5.79549 13.6705C5.58452 13.8815 5.29837 14 5 14ZM14 14C13.7775 14 13.56 13.934 13.375 13.8104C13.19 13.6868 13.0458 13.5111 12.9606 13.3055C12.8755 13.1 12.8532 12.8738 12.8966 12.6555C12.94 12.4373 13.0472 12.2368 13.2045 12.0795C13.3618 11.9222 13.5623 11.815 13.7805 11.7716C13.9988 11.7282 14.225 11.7505 14.4305 11.8356C14.6361 11.9208 14.8118 12.065 14.9354 12.25C15.059 12.435 15.125 12.6525 15.125 12.875C15.125 13.1734 15.0065 13.4595 14.7955 13.6705C14.5845 13.8815 14.2984 14 14 14ZM17.375 12.3125H16.1797C16.0558 11.8285 15.7743 11.3995 15.3796 11.0932C14.985 10.7869 14.4996 10.6206 14 10.6206C13.5004 10.6206 13.015 10.7869 12.6204 11.0932C12.2257 11.3995 11.9442 11.8285 11.8203 12.3125H7.17969C7.05577 11.8285 6.77429 11.3995 6.37964 11.0932C5.98498 10.7869 5.4996 10.6206 5 10.6206C4.5004 10.6206 4.01502 10.7869 3.62036 11.0932C3.22571 11.3995 2.94423 11.8285 2.82031 12.3125H1.625V9.50001H17.375V12.3125Z" fill="#FF0000"/>
</g>
<defs>
<clipPath id="clip0_29_3399">
<rect width="18" height="18" fill="white" transform="translate(0.5 0.5)"/>
</clipPath>
</defs>
</svg>
