<svg width="18" height="19" viewBox="0 0 18 19" fill="none" xmlns="http://www.w3.org/2000/svg">
<g clip-path="url(#clip0_29_3271)">
<path d="M16.875 8.37501H14.8577L11.8125 5.32977C11.7084 5.22485 11.5845 5.14167 11.448 5.08506C11.3115 5.02844 11.1651 4.99953 11.0173 5.00001H3.11344C2.92865 5.00035 2.7468 5.0462 2.58394 5.13352C2.42108 5.22083 2.28224 5.34692 2.17969 5.50063L0.0942188 8.62532C0.0329427 8.71792 0.000183416 8.82647 0 8.93751L0 12.3125C0 12.6109 0.118526 12.897 0.329505 13.108C0.540483 13.319 0.826631 13.4375 1.125 13.4375H2.32031C2.44423 13.9215 2.72571 14.3505 3.12036 14.6568C3.51502 14.9631 4.0004 15.1294 4.5 15.1294C4.9996 15.1294 5.48498 14.9631 5.87964 14.6568C6.27429 14.3505 6.55577 13.9215 6.67969 13.4375H11.3203C11.4442 13.9215 11.7257 14.3505 12.1204 14.6568C12.515 14.9631 13.0004 15.1294 13.5 15.1294C13.9996 15.1294 14.485 14.9631 14.8796 14.6568C15.2743 14.3505 15.5558 13.9215 15.6797 13.4375H16.875C17.1734 13.4375 17.4595 13.319 17.6705 13.108C17.8815 12.897 18 12.6109 18 12.3125V9.50001C18 9.20164 17.8815 8.91549 17.6705 8.70451C17.4595 8.49353 17.1734 8.37501 16.875 8.37501ZM3.11344 6.12501H11.0173L13.2673 8.37501H1.61719L3.11344 6.12501ZM4.5 14C4.2775 14 4.05999 13.934 3.87498 13.8104C3.68998 13.6868 3.54578 13.5111 3.46064 13.3055C3.37549 13.1 3.35321 12.8738 3.39662 12.6555C3.44002 12.4373 3.54717 12.2368 3.7045 12.0795C3.86184 11.9222 4.06229 11.815 4.28052 11.7716C4.49875 11.7282 4.72495 11.7505 4.93052 11.8356C5.13609 11.9208 5.31179 12.065 5.4354 12.25C5.55902 12.435 5.625 12.6525 5.625 12.875C5.625 13.1734 5.50647 13.4595 5.29549 13.6705C5.08452 13.8815 4.79837 14 4.5 14ZM13.5 14C13.2775 14 13.06 13.934 12.875 13.8104C12.69 13.6868 12.5458 13.5111 12.4606 13.3055C12.3755 13.1 12.3532 12.8738 12.3966 12.6555C12.44 12.4373 12.5472 12.2368 12.7045 12.0795C12.8618 11.9222 13.0623 11.815 13.2805 11.7716C13.4988 11.7282 13.725 11.7505 13.9305 11.8356C14.1361 11.9208 14.3118 12.065 14.4354 12.25C14.559 12.435 14.625 12.6525 14.625 12.875C14.625 13.1734 14.5065 13.4595 14.2955 13.6705C14.0845 13.8815 13.7984 14 13.5 14ZM16.875 12.3125H15.6797C15.5558 11.8285 15.2743 11.3995 14.8796 11.0932C14.485 10.7869 13.9996 10.6206 13.5 10.6206C13.0004 10.6206 12.515 10.7869 12.1204 11.0932C11.7257 11.3995 11.4442 11.8285 11.3203 12.3125H6.67969C6.55577 11.8285 6.27429 11.3995 5.87964 11.0932C5.48498 10.7869 4.9996 10.6206 4.5 10.6206C4.0004 10.6206 3.51502 10.7869 3.12036 11.0932C2.72571 11.3995 2.44423 11.8285 2.32031 12.3125H1.125V9.50001H16.875V12.3125Z" fill="#818187"/>
</g>
<defs>
<clipPath id="clip0_29_3271">
<rect width="18" height="18" fill="white" transform="translate(0 0.5)"/>
</clipPath>
</defs>
</svg>
