<svg width="19" height="19" viewBox="0 0 19 19" fill="none" xmlns="http://www.w3.org/2000/svg">
<path d="M8.75 7.25H11.75C11.9489 7.25 12.1397 7.17098 12.2803 7.03033C12.421 6.88968 12.5 6.69891 12.5 6.5C12.5 6.30109 12.421 6.11032 12.2803 5.96967C12.1397 5.82902 11.9489 5.75 11.75 5.75H10.25V5C10.25 4.80109 10.171 4.61032 10.0303 4.46967C9.88968 4.32902 9.69892 4.25 9.5 4.25C9.30109 4.25 9.11033 4.32902 8.96967 4.46967C8.82902 4.61032 8.75 4.80109 8.75 5V5.75C8.15327 5.75 7.58097 5.98705 7.15901 6.40901C6.73706 6.83097 6.5 7.40326 6.5 8C6.5 8.59674 6.73706 9.16903 7.15901 9.59099C7.58097 10.0129 8.15327 10.25 8.75 10.25H10.25C10.4489 10.25 10.6397 10.329 10.7803 10.4697C10.921 10.6103 11 10.8011 11 11C11 11.1989 10.921 11.3897 10.7803 11.5303C10.6397 11.671 10.4489 11.75 10.25 11.75H7.25C7.05109 11.75 6.86033 11.829 6.71967 11.9697C6.57902 12.1103 6.5 12.3011 6.5 12.5C6.5 12.6989 6.57902 12.8897 6.71967 13.0303C6.86033 13.171 7.05109 13.25 7.25 13.25H8.75V14C8.75 14.1989 8.82902 14.3897 8.96967 14.5303C9.11033 14.671 9.30109 14.75 9.5 14.75C9.69892 14.75 9.88968 14.671 10.0303 14.5303C10.171 14.3897 10.25 14.1989 10.25 14V13.25C10.8467 13.25 11.419 13.0129 11.841 12.591C12.263 12.169 12.5 11.5967 12.5 11C12.5 10.4033 12.263 9.83097 11.841 9.40901C11.419 8.98705 10.8467 8.75 10.25 8.75H8.75C8.55109 8.75 8.36033 8.67098 8.21967 8.53033C8.07902 8.38968 8 8.19891 8 8C8 7.80109 8.07902 7.61032 8.21967 7.46967C8.36033 7.32902 8.55109 7.25 8.75 7.25V7.25ZM9.5 1.25C7.86831 1.25 6.27325 1.73385 4.91655 2.64038C3.55984 3.5469 2.50242 4.83537 1.878 6.34286C1.25357 7.85035 1.0902 9.50915 1.40853 11.1095C1.72685 12.7098 2.51259 14.1798 3.66637 15.3336C4.82016 16.4874 6.29017 17.2732 7.89051 17.5915C9.49085 17.9098 11.1497 17.7464 12.6571 17.122C14.1646 16.4976 15.4531 15.4402 16.3596 14.0835C17.2662 12.7268 17.75 11.1317 17.75 9.5C17.75 7.31196 16.8808 5.21354 15.3336 3.66637C13.7865 2.11919 11.688 1.25 9.5 1.25V1.25ZM9.5 16.25C8.16498 16.25 6.85994 15.8541 5.7499 15.1124C4.63987 14.3707 3.77471 13.3165 3.26382 12.0831C2.75293 10.8497 2.61925 9.49251 2.8797 8.18314C3.14015 6.87377 3.78303 5.67103 4.72703 4.72703C5.67104 3.78302 6.87377 3.14015 8.18314 2.8797C9.49252 2.61925 10.8497 2.75292 12.0831 3.26381C13.3165 3.7747 14.3707 4.63987 15.1124 5.7499C15.8541 6.85993 16.25 8.16498 16.25 9.5C16.25 11.2902 15.5388 13.0071 14.273 14.273C13.0071 15.5388 11.2902 16.25 9.5 16.25V16.25Z" fill="#FF0000"/>
</svg>
