<svg width="19" height="19" viewBox="0 0 19 19" fill="none" xmlns="http://www.w3.org/2000/svg">
<path d="M16.94 5.465C16.8638 5.28174 16.7182 5.13611 16.535 5.06C16.4448 5.02157 16.348 5.00118 16.25 5H12.5C12.301 5 12.1103 5.07902 11.9696 5.21967C11.829 5.36032 11.75 5.55109 11.75 5.75C11.75 5.94891 11.829 6.13968 11.9696 6.28033C12.1103 6.42098 12.301 6.5 12.5 6.5H14.4425L10.25 10.6925L7.78245 8.2175C7.71273 8.1472 7.62978 8.09141 7.53839 8.05333C7.44699 8.01526 7.34896 7.99565 7.24995 7.99565C7.15095 7.99565 7.05292 8.01526 6.96152 8.05333C6.87013 8.09141 6.78718 8.1472 6.71745 8.2175L2.21745 12.7175C2.14716 12.7872 2.09136 12.8702 2.05329 12.9616C2.01521 13.053 1.99561 13.151 1.99561 13.25C1.99561 13.349 2.01521 13.447 2.05329 13.5384C2.09136 13.6298 2.14716 13.7128 2.21745 13.7825C2.28718 13.8528 2.37013 13.9086 2.46152 13.9467C2.55292 13.9847 2.65095 14.0043 2.74995 14.0043C2.84896 14.0043 2.94699 13.9847 3.03839 13.9467C3.12978 13.9086 3.21273 13.8528 3.28245 13.7825L7.24995 9.8075L9.71745 12.2825C9.78718 12.3528 9.87013 12.4086 9.96152 12.4467C10.0529 12.4847 10.1509 12.5043 10.25 12.5043C10.349 12.5043 10.447 12.4847 10.5384 12.4467C10.6298 12.4086 10.7127 12.3528 10.7825 12.2825L15.5 7.5575V9.5C15.5 9.69891 15.579 9.88968 15.7196 10.0303C15.8603 10.171 16.051 10.25 16.25 10.25C16.4489 10.25 16.6396 10.171 16.7803 10.0303C16.9209 9.88968 17 9.69891 17 9.5V5.75C16.9988 5.65199 16.9784 5.55517 16.94 5.465V5.465Z" fill="#FF0000"/>
</svg>
