<svg width="18" height="19" viewBox="0 0 18 19" fill="none" xmlns="http://www.w3.org/2000/svg">
<path d="M6.1875 7.8125H2.8125C2.66332 7.8125 2.52024 7.75324 2.41475 7.64775C2.30926 7.54226 2.25 7.39918 2.25 7.25V3.875C2.25 3.72582 2.30926 3.58274 2.41475 3.47725C2.52024 3.37176 2.66332 3.3125 2.8125 3.3125C2.96168 3.3125 3.10476 3.37176 3.21025 3.47725C3.31574 3.58274 3.375 3.72582 3.375 3.875V5.55195C4.46273 4.325 6.37102 2.75 9 2.75C12.0108 2.75 13.822 4.5268 13.898 4.60203C14.0037 4.70739 14.0633 4.85044 14.0635 4.99971C14.0638 5.14898 14.0047 5.29223 13.8994 5.39797C13.794 5.5037 13.651 5.56325 13.5017 5.56352C13.3524 5.56378 13.2092 5.50474 13.1034 5.39938C13.0845 5.38039 11.5256 3.875 9 3.875C6.53906 3.875 4.76508 5.6082 3.89812 6.6875H6.1875C6.33668 6.6875 6.47976 6.74676 6.58525 6.85225C6.69074 6.95774 6.75 7.10082 6.75 7.25C6.75 7.39918 6.69074 7.54226 6.58525 7.64775C6.47976 7.75324 6.33668 7.8125 6.1875 7.8125ZM15.1875 11.1875H11.8125C11.6633 11.1875 11.5202 11.2468 11.4148 11.3523C11.3093 11.4577 11.25 11.6008 11.25 11.75C11.25 11.8992 11.3093 12.0423 11.4148 12.1477C11.5202 12.2532 11.6633 12.3125 11.8125 12.3125H14.1019C13.2349 13.3918 11.4609 15.125 9 15.125C6.47438 15.125 4.91555 13.6196 4.89656 13.6006C4.79083 13.4953 4.64757 13.4362 4.4983 13.4365C4.34904 13.4367 4.20599 13.4963 4.10062 13.602C3.99526 13.7078 3.93622 13.851 3.93648 14.0003C3.93675 14.1496 3.9963 14.2926 4.10203 14.398C4.17797 14.4732 5.98922 16.25 9 16.25C11.629 16.25 13.5373 14.675 14.625 13.448V15.125C14.625 15.2742 14.6843 15.4173 14.7898 15.5227C14.8952 15.6282 15.0383 15.6875 15.1875 15.6875C15.3367 15.6875 15.4798 15.6282 15.5852 15.5227C15.6907 15.4173 15.75 15.2742 15.75 15.125V11.75C15.75 11.6008 15.6907 11.4577 15.5852 11.3523C15.4798 11.2468 15.3367 11.1875 15.1875 11.1875Z" fill="#818187"/>
</svg>
