<svg width="22" height="22" viewBox="0 0 22 22" fill="none" xmlns="http://www.w3.org/2000/svg">
<path d="M18.3614 5.70109L14.9239 2.26359C14.86 2.19977 14.7842 2.14916 14.7007 2.11466C14.6173 2.08015 14.5278 2.06243 14.4375 2.0625H7.5625C7.19783 2.0625 6.84809 2.20737 6.59023 2.46523C6.33237 2.72309 6.1875 3.07283 6.1875 3.4375V4.8125H4.8125C4.44783 4.8125 4.09809 4.95737 3.84023 5.21523C3.58237 5.47309 3.4375 5.82283 3.4375 6.1875V18.5625C3.4375 18.9272 3.58237 19.2769 3.84023 19.5348C4.09809 19.7926 4.44783 19.9375 4.8125 19.9375H14.4375C14.8022 19.9375 15.1519 19.7926 15.4098 19.5348C15.6676 19.2769 15.8125 18.9272 15.8125 18.5625V17.1875H17.1875C17.5522 17.1875 17.9019 17.0426 18.1598 16.7848C18.4176 16.5269 18.5625 16.1772 18.5625 15.8125V6.1875C18.5626 6.09719 18.5448 6.00775 18.5103 5.92429C18.4758 5.84083 18.4252 5.76499 18.3614 5.70109ZM11.6875 16.5H7.5625C7.38016 16.5 7.2053 16.4276 7.07636 16.2986C6.94743 16.1697 6.875 15.9948 6.875 15.8125C6.875 15.6302 6.94743 15.4553 7.07636 15.3264C7.2053 15.1974 7.38016 15.125 7.5625 15.125H11.6875C11.8698 15.125 12.0447 15.1974 12.1736 15.3264C12.3026 15.4553 12.375 15.6302 12.375 15.8125C12.375 15.9948 12.3026 16.1697 12.1736 16.2986C12.0447 16.4276 11.8698 16.5 11.6875 16.5ZM11.6875 13.75H7.5625C7.38016 13.75 7.2053 13.6776 7.07636 13.5486C6.94743 13.4197 6.875 13.2448 6.875 13.0625C6.875 12.8802 6.94743 12.7053 7.07636 12.5764C7.2053 12.4474 7.38016 12.375 7.5625 12.375H11.6875C11.8698 12.375 12.0447 12.4474 12.1736 12.5764C12.3026 12.7053 12.375 12.8802 12.375 13.0625C12.375 13.2448 12.3026 13.4197 12.1736 13.5486C12.0447 13.6776 11.8698 13.75 11.6875 13.75ZM17.1875 15.8125H15.8125V8.9375C15.8126 8.84719 15.7948 8.75775 15.7603 8.67429C15.7258 8.59083 15.6752 8.51499 15.6114 8.45109L12.1739 5.01359C12.11 4.94977 12.0342 4.89916 11.9507 4.86466C11.8673 4.83015 11.7778 4.81243 11.6875 4.8125H7.5625V3.4375H14.153L17.1875 6.47195V15.8125Z" fill="black"/>
</svg>
