<svg width="22" height="22" viewBox="0 0 22 22" fill="none" xmlns="http://www.w3.org/2000/svg">
<path d="M18.3614 7.07609L13.5489 2.26359C13.485 2.19977 13.4092 2.14916 13.3257 2.11466C13.2423 2.08015 13.1528 2.06243 13.0625 2.0625H4.8125C4.44783 2.0625 4.09809 2.20737 3.84023 2.46523C3.58237 2.72309 3.4375 3.07283 3.4375 3.4375V18.5625C3.4375 18.9272 3.58237 19.2769 3.84023 19.5348C4.09809 19.7926 4.44783 19.9375 4.8125 19.9375H7.90625C7.99742 19.9375 8.08485 19.9013 8.14932 19.8368C8.21378 19.7724 8.25 19.6849 8.25 19.5938V17.875H7.5857C7.40798 17.8778 7.23581 17.8131 7.10391 17.694C6.97201 17.5749 6.89021 17.4101 6.875 17.233C6.86876 17.139 6.88191 17.0447 6.91366 16.9559C6.9454 16.8672 6.99505 16.7859 7.05952 16.7172C7.124 16.6484 7.20192 16.5937 7.28844 16.5563C7.37497 16.519 7.46825 16.4998 7.5625 16.5H8.25V15.125H7.5857C7.40798 15.1278 7.23581 15.0631 7.10391 14.944C6.97201 14.8249 6.89021 14.6601 6.875 14.483C6.86876 14.389 6.88191 14.2947 6.91366 14.2059C6.9454 14.1172 6.99505 14.0359 7.05952 13.9672C7.124 13.8984 7.20192 13.8437 7.28844 13.8063C7.37497 13.769 7.46825 13.7498 7.5625 13.75H8.25V12.375H7.5857C7.40798 12.3778 7.23581 12.3131 7.10391 12.194C6.97201 12.0749 6.89021 11.9101 6.875 11.733C6.86876 11.639 6.88191 11.5447 6.91366 11.4559C6.9454 11.3672 6.99505 11.2859 7.05952 11.2172C7.124 11.1484 7.20192 11.0937 7.28844 11.0563C7.37497 11.019 7.46825 10.9998 7.5625 11H8.25V10.3357C8.24781 10.1583 8.31276 9.9867 8.43182 9.85521C8.55088 9.72372 8.71524 9.6421 8.89195 9.62672C8.98599 9.62047 9.08031 9.63363 9.16906 9.66538C9.2578 9.69712 9.33906 9.74677 9.40781 9.81124C9.47655 9.87572 9.53131 9.95364 9.56867 10.0402C9.60603 10.1267 9.62521 10.22 9.625 10.3142V11.0017H10.2893C10.4667 10.9993 10.6385 11.0642 10.77 11.1833C10.9015 11.3024 10.9831 11.4669 10.9983 11.6437C11.0045 11.7377 10.9914 11.832 10.9596 11.9208C10.9279 12.0095 10.8782 12.0908 10.8138 12.1595C10.7493 12.2283 10.6714 12.283 10.5848 12.3204C10.4983 12.3578 10.405 12.3769 10.3108 12.3767H9.62328V13.7517H10.2876C10.465 13.7493 10.6367 13.8142 10.7683 13.9333C10.8998 14.0524 10.9814 14.2169 10.9966 14.3937C11.0028 14.4877 10.9896 14.582 10.9579 14.6708C10.9262 14.7595 10.8765 14.8408 10.812 14.9095C10.7476 14.9783 10.6696 15.033 10.5831 15.0704C10.4966 15.1078 10.4033 15.1269 10.3091 15.1267H9.62156V16.5017H10.2859C10.4633 16.4993 10.635 16.5642 10.7666 16.6833C10.8981 16.8024 10.9797 16.9669 10.9948 17.1437C11.0011 17.2377 10.9879 17.332 10.9562 17.4208C10.9244 17.5095 10.8748 17.5908 10.8103 17.6595C10.7458 17.7283 10.6679 17.783 10.5814 17.8204C10.4949 17.8578 10.4016 17.8769 10.3073 17.8767H9.61984V19.5955C9.61984 19.6866 9.65606 19.7741 9.72053 19.8385C9.78499 19.903 9.87243 19.9392 9.96359 19.9392H17.1823C17.547 19.9392 17.8968 19.7944 18.1546 19.5365C18.4125 19.2786 18.5573 18.9289 18.5573 18.5642V7.5625C18.5589 7.38085 18.4884 7.20597 18.3614 7.07609ZM13.0625 7.5625V3.78125L16.8438 7.5625H13.0625Z" fill="black"/>
</svg>
