<svg width="40" height="41" viewBox="0 0 40 41" fill="none" xmlns="http://www.w3.org/2000/svg">
<g clip-path="url(#clip0_29_3108)">
<path d="M18.325 12.817C18.751 11.061 21.249 11.061 21.675 12.817C21.8046 13.3521 22.182 13.793 22.6907 14.0037C23.1993 14.2145 23.7779 14.1696 24.248 13.883C25.791 12.943 27.558 14.709 26.618 16.253C26.3318 16.7229 26.2871 17.3011 26.4975 17.8094C26.708 18.3177 27.1484 18.695 27.683 18.825C29.439 19.251 29.439 21.749 27.683 22.175C27.1479 22.3046 26.707 22.682 26.4963 23.1907C26.2855 23.6993 26.3304 24.2779 26.617 24.748C27.557 26.291 25.791 28.058 24.247 27.118C23.7771 26.8318 23.1989 26.7871 22.6906 26.9975C22.1823 27.208 21.805 27.6484 21.675 28.183C21.249 29.939 18.751 29.939 18.325 28.183C18.1954 27.6479 17.818 27.207 17.3093 26.9963C16.8007 26.7855 16.2221 26.8304 15.752 27.117C14.209 28.057 12.442 26.291 13.382 24.747C13.6682 24.2771 13.7129 23.6989 13.5025 23.1906C13.292 22.6823 12.8516 22.305 12.317 22.175C10.561 21.749 10.561 19.251 12.317 18.825C12.8521 18.6954 13.293 18.318 13.5037 17.8093C13.7145 17.3007 13.6696 16.7221 13.383 16.252C12.443 14.709 14.209 12.942 15.753 13.882C16.749 14.49 18.049 13.952 18.325 12.817" stroke="#6B7280" stroke-width="2" stroke-linecap="round" stroke-linejoin="round"/>
<path d="M23 20.5C23 22.1557 21.6557 23.5 20 23.5C18.3443 23.5 17 22.1557 17 20.5C17 18.8443 18.3443 17.5 20 17.5C21.6557 17.5 23 18.8443 23 20.5" stroke="#6B7280" stroke-width="2" stroke-linecap="round" stroke-linejoin="round"/>
</g>
<defs>
<clipPath id="clip0_29_3108">
<rect width="24" height="24" fill="white" transform="translate(8 8.5)"/>
</clipPath>
</defs>
</svg>
