<svg width="18" height="19" viewBox="0 0 18 19" fill="none" xmlns="http://www.w3.org/2000/svg">
<path d="M16.4404 5.465C16.3643 5.28174 16.2187 5.13611 16.0354 5.06C15.9453 5.02157 15.8485 5.00118 15.7504 5H12.0004C11.8015 5 11.6108 5.07902 11.4701 5.21967C11.3295 5.36032 11.2504 5.55109 11.2504 5.75C11.2504 5.94891 11.3295 6.13968 11.4701 6.28033C11.6108 6.42098 11.8015 6.5 12.0004 6.5H13.9429L9.75044 10.6925L7.28294 8.2175C7.21322 8.1472 7.13027 8.09141 7.03888 8.05333C6.94748 8.01526 6.84945 7.99565 6.75044 7.99565C6.65143 7.99565 6.5534 8.01526 6.46201 8.05333C6.37062 8.09141 6.28766 8.1472 6.21794 8.2175L1.71794 12.7175C1.64765 12.7872 1.59185 12.8702 1.55377 12.9616C1.5157 13.053 1.49609 13.151 1.49609 13.25C1.49609 13.349 1.5157 13.447 1.55377 13.5384C1.59185 13.6298 1.64765 13.7128 1.71794 13.7825C1.78766 13.8528 1.87062 13.9086 1.96201 13.9467C2.0534 13.9847 2.15143 14.0043 2.25044 14.0043C2.34945 14.0043 2.44748 13.9847 2.53887 13.9467C2.63027 13.9086 2.71322 13.8528 2.78294 13.7825L6.75044 9.8075L9.21794 12.2825C9.28766 12.3528 9.37062 12.4086 9.46201 12.4467C9.5534 12.4847 9.65143 12.5043 9.75044 12.5043C9.84945 12.5043 9.94748 12.4847 10.0389 12.4467C10.1303 12.4086 10.2132 12.3528 10.2829 12.2825L15.0004 7.5575V9.5C15.0004 9.69891 15.0795 9.88968 15.2201 10.0303C15.3608 10.171 15.5515 10.25 15.7504 10.25C15.9494 10.25 16.1401 10.171 16.2808 10.0303C16.4214 9.88968 16.5004 9.69891 16.5004 9.5V5.75C16.4993 5.65199 16.4789 5.55517 16.4404 5.465V5.465Z" fill="#818187"/>
</svg>
