<svg width="497" height="317" viewBox="0 0 497 317" fill="none" xmlns="http://www.w3.org/2000/svg">
<g clip-path="url(#clip0_29_3336)">
<path d="M88.3967 314.242C93.1361 310.239 96.015 303.915 95.26 297.759C94.505 291.603 89.829 285.944 83.7635 284.637C77.6979 283.33 70.7837 286.948 68.9414 292.871C67.9275 281.452 66.7592 269.556 60.6858 259.832C55.1865 251.028 45.6616 244.728 35.3388 243.601C25.016 242.474 14.1473 246.73 7.70936 254.874C1.27139 263.018 -0.304934 274.858 4.20405 284.208C7.52567 291.096 13.6453 296.222 20.0571 300.392C40.7759 313.754 65.6254 319.188 90.0335 315.694L88.3967 314.242Z" fill="#F2F2F2"/>
<path d="M17.9172 246.966C26.4348 253.901 34.2488 261.656 41.2462 270.121C48.2447 278.577 54.4062 287.692 59.644 297.337C62.5716 302.748 65.2017 308.314 67.5223 314.011C67.9954 315.17 66.1127 315.675 65.6448 314.529C61.5344 304.485 56.4492 294.868 50.4619 285.815C44.5037 276.795 37.6842 268.375 30.0992 260.671C25.8091 256.316 21.2827 252.2 16.5405 248.342C15.5685 247.551 16.9532 246.181 17.9172 246.966Z" fill="white"/>
<path d="M371.224 0H114.555C113.576 0.00108482 112.639 0.389947 111.947 1.08128C111.255 1.77261 110.866 2.70994 110.865 3.68763V177.533C110.866 178.511 111.255 179.448 111.947 180.139C112.639 180.831 113.576 181.22 114.555 181.221H371.224C372.202 181.22 373.14 180.831 373.831 180.139C374.523 179.448 374.912 178.511 374.913 177.533V3.68763C374.912 2.70994 374.523 1.77261 373.831 1.08128C373.14 0.389947 372.202 0.00108482 371.224 0ZM373.859 177.533C373.859 178.232 373.581 178.901 373.087 179.395C372.593 179.889 371.922 180.167 371.224 180.167H114.555C113.856 180.167 113.186 179.889 112.691 179.395C112.197 178.901 111.92 178.232 111.919 177.533V3.68763C111.92 2.98913 112.197 2.31932 112.691 1.82541C113.186 1.33149 113.856 1.05389 114.555 1.05361H371.224C371.922 1.05389 372.593 1.33149 373.087 1.82541C373.581 2.31932 373.859 2.98913 373.859 3.68763V177.533Z" fill="#563D3D"/>
<path d="M374.386 14.7715H111.393V15.8251H374.386V14.7715Z" fill="#563D3D"/>
<path d="M120.352 11.0629C122.099 11.0629 123.514 9.64771 123.514 7.90204C123.514 6.15636 122.099 4.74121 120.352 4.74121C118.606 4.74121 117.19 6.15636 117.19 7.90204C117.19 9.64771 118.606 11.0629 120.352 11.0629Z" fill="#563D3D"/>
<path d="M129.443 11.0629C131.19 11.0629 132.606 9.64771 132.606 7.90204C132.606 6.15636 131.19 4.74121 129.443 4.74121C127.697 4.74121 126.281 6.15636 126.281 7.90204C126.281 9.64771 127.697 11.0629 129.443 11.0629Z" fill="#563D3D"/>
<path d="M138.535 11.0629C140.282 11.0629 141.698 9.64771 141.698 7.90204C141.698 6.15636 140.282 4.74121 138.535 4.74121C136.789 4.74121 135.373 6.15636 135.373 7.90204C135.373 9.64771 136.789 11.0629 138.535 11.0629Z" fill="#563D3D"/>
<path d="M265.025 39.2468H220.754C219.775 39.2468 218.837 38.8583 218.145 38.1668C217.453 37.4752 217.064 36.5372 217.064 35.5592C217.064 34.5812 217.453 33.6432 218.145 32.9517C218.837 32.2601 219.775 31.8716 220.754 31.8716H265.025C266.004 31.8716 266.942 32.2601 267.634 32.9517C268.326 33.6432 268.715 34.5812 268.715 35.5592C268.715 36.5372 268.326 37.4752 267.634 38.1668C266.942 38.8583 266.004 39.2468 265.025 39.2468Z" fill="#CCCCCC"/>
<path d="M295.33 57.1585H190.449C189.47 57.1585 188.532 56.7699 187.84 56.0784C187.148 55.3868 186.759 54.4489 186.759 53.4708C186.759 52.4928 187.148 51.5548 187.84 50.8633C188.532 50.1717 189.47 49.7832 190.449 49.7832H295.33C296.308 49.7832 297.247 50.1717 297.939 50.8633C298.63 51.5548 299.019 52.4928 299.019 53.4708C299.019 54.4489 298.63 55.3868 297.939 56.0784C297.247 56.7699 296.308 57.1585 295.33 57.1585Z" fill="#CCCCCC"/>
<path d="M326.784 167.235C322.809 167.235 318.923 166.056 315.617 163.849C312.312 161.641 309.735 158.503 308.214 154.832C306.693 151.161 306.295 147.121 307.07 143.224C307.846 139.327 309.76 135.747 312.571 132.937C315.382 130.127 318.964 128.214 322.863 127.438C326.762 126.663 330.804 127.061 334.476 128.582C338.149 130.102 341.288 132.677 343.497 135.981C345.706 139.285 346.885 143.17 346.885 147.143C346.879 152.47 344.759 157.577 340.991 161.343C337.223 165.11 332.113 167.229 326.784 167.235ZM326.784 128.438C323.083 128.438 319.465 129.535 316.387 131.59C313.31 133.646 310.911 136.567 309.495 139.985C308.078 143.403 307.708 147.164 308.43 150.793C309.152 154.421 310.934 157.754 313.552 160.37C316.169 162.986 319.503 164.768 323.133 165.49C326.764 166.211 330.526 165.841 333.946 164.425C337.365 163.009 340.288 160.612 342.345 157.536C344.401 154.46 345.498 150.843 345.498 147.143C345.493 142.184 343.519 137.43 340.011 133.923C336.503 130.416 331.746 128.443 326.784 128.438Z" fill="#563D3D"/>
<path d="M158.27 113.425C154.295 113.425 150.409 112.247 147.103 110.039C143.798 107.831 141.221 104.694 139.7 101.022C138.179 97.3513 137.781 93.3116 138.556 89.4143C139.332 85.517 141.246 81.9371 144.057 79.1273C146.868 76.3175 150.45 74.404 154.349 73.6287C158.248 72.8535 162.289 73.2514 165.962 74.772C169.635 76.2927 172.774 78.8678 174.983 82.1718C177.192 85.4758 178.37 89.3602 178.37 93.3339C178.364 98.6606 176.245 103.767 172.477 107.534C168.708 111.3 163.599 113.419 158.27 113.425ZM158.27 74.6283C154.569 74.6283 150.951 75.7254 147.873 77.7808C144.796 79.8362 142.397 82.7576 140.981 86.1756C139.564 89.5936 139.194 93.3547 139.916 96.9832C140.638 100.612 142.42 103.945 145.037 106.561C147.655 109.177 150.989 110.958 154.619 111.68C158.249 112.402 162.012 112.031 165.432 110.616C168.851 109.2 171.774 106.802 173.83 103.726C175.887 100.65 176.984 97.0335 176.984 93.3339C176.979 88.3746 175.005 83.62 171.497 80.1132C167.988 76.6065 163.232 74.6339 158.27 74.6283Z" fill="#563D3D"/>
<path d="M166.078 103.985C165.552 103.985 165.047 103.776 164.674 103.404C164.302 103.033 164.092 102.528 164.091 102.002V90.7296C164.092 90.2041 164.301 89.7003 164.673 89.3287C165.045 88.9571 165.549 88.748 166.074 88.7474H166.078C166.604 88.748 167.108 88.9571 167.479 89.3287C167.851 89.7003 168.06 90.2041 168.061 90.7296V102.002C168.06 102.528 167.851 103.032 167.479 103.403C167.108 103.775 166.604 103.984 166.078 103.985ZM160.9 103.985C160.638 103.987 160.377 103.938 160.134 103.84C159.89 103.741 159.669 103.596 159.482 103.412C159.295 103.227 159.146 103.008 159.045 102.766C158.943 102.524 158.89 102.265 158.889 102.002V95.93C158.889 95.4046 159.098 94.9007 159.47 94.5292C159.842 94.1576 160.346 93.9486 160.872 93.9481H160.9C161.426 93.9486 161.93 94.1576 162.302 94.5292C162.673 94.9007 162.883 95.4046 162.883 95.93V102.002C162.883 102.528 162.673 103.032 162.302 103.403C161.93 103.775 161.426 103.984 160.9 103.985ZM155.672 103.985C155.146 103.985 154.641 103.776 154.269 103.404C153.896 103.033 153.687 102.528 153.686 102.002V84.6658C153.686 84.1403 153.896 83.6365 154.267 83.2649C154.639 82.8932 155.143 82.6842 155.669 82.6836H155.672C156.198 82.6842 156.702 82.8932 157.074 83.2649C157.446 83.6365 157.655 84.1403 157.655 84.6658V102.002C157.655 102.528 157.446 103.032 157.074 103.403C156.702 103.775 156.198 103.984 155.672 103.985ZM150.465 103.985C150.204 103.985 149.946 103.934 149.705 103.834C149.464 103.735 149.245 103.588 149.06 103.404C148.876 103.22 148.73 103.001 148.63 102.76C148.53 102.52 148.479 102.262 148.479 102.001L148.482 99.3971C148.482 98.8714 148.691 98.3674 149.063 97.9958C149.435 97.6243 149.94 97.4157 150.465 97.4159C150.991 97.4161 151.496 97.6252 151.867 97.997C152.239 98.3689 152.448 98.8731 152.448 99.3988V102.002C152.447 102.528 152.238 103.032 151.866 103.403C151.494 103.775 150.99 103.984 150.465 103.985Z" fill="#EC5757"/>
<path d="M463.186 315.718C459.211 315.718 455.325 314.54 452.019 312.332C448.714 310.124 446.137 306.987 444.616 303.315C443.095 299.644 442.697 295.605 443.472 291.707C444.248 287.81 446.162 284.23 448.973 281.42C451.784 278.61 455.366 276.697 459.265 275.922C463.164 275.146 467.205 275.544 470.878 277.065C474.551 278.586 477.69 281.161 479.899 284.465C482.108 287.769 483.286 291.653 483.286 295.627C483.28 300.954 481.161 306.06 477.393 309.827C473.624 313.593 468.515 315.712 463.186 315.718ZM463.186 276.921C459.485 276.921 455.867 278.018 452.789 280.074C449.712 282.129 447.313 285.051 445.897 288.469C444.48 291.887 444.11 295.648 444.832 299.276C445.554 302.905 447.336 306.238 449.953 308.854C452.571 311.47 455.905 313.251 459.535 313.973C463.165 314.695 466.928 314.324 470.348 312.909C473.767 311.493 476.69 309.095 478.746 306.019C480.803 302.943 481.9 299.326 481.9 295.627C481.895 290.668 479.921 285.913 476.413 282.406C472.904 278.899 468.148 276.927 463.186 276.921Z" fill="#563D3D"/>
<path d="M468.727 292.14L464.809 298.129C465.123 298.511 465.295 298.991 465.293 299.486C465.292 300.057 465.064 300.604 464.66 301.007C464.256 301.411 463.708 301.637 463.137 301.637C462.566 301.637 462.018 301.411 461.613 301.007C461.209 300.604 460.982 300.057 460.981 299.486C460.982 299.347 460.994 299.209 461.018 299.072L458.432 297.567C458.098 297.89 457.668 298.096 457.207 298.154C456.746 298.212 456.278 298.119 455.874 297.889L453.123 300.466V303.035C453.124 303.543 453.326 304.03 453.685 304.389C454.044 304.749 454.53 304.952 455.039 304.954H471.33C471.839 304.952 472.326 304.749 472.686 304.389C473.045 304.03 473.248 303.543 473.25 303.035V293.509L470.618 291.759C470.354 291.965 470.046 292.106 469.718 292.172C469.39 292.238 469.051 292.227 468.727 292.14Z" fill="#EC5757"/>
<path d="M456.938 293.877C457.51 293.877 458.058 294.104 458.462 294.509C458.867 294.913 459.094 295.461 459.094 296.032V296.31L461.792 297.819C462.177 297.504 462.66 297.331 463.157 297.331C463.315 297.332 463.471 297.349 463.625 297.381L467.552 291.305C467.356 291.029 467.228 290.711 467.178 290.377C467.128 290.043 467.158 289.701 467.265 289.38C467.372 289.06 467.553 288.769 467.794 288.531C468.035 288.294 468.328 288.117 468.65 288.014C468.973 287.911 469.315 287.886 469.649 287.941C469.982 287.995 470.299 288.128 470.571 288.328C470.844 288.527 471.066 288.789 471.219 289.091C471.372 289.392 471.451 289.726 471.45 290.064C471.45 290.235 471.431 290.406 471.392 290.573L473.25 291.813V288.219C473.248 287.711 473.045 287.224 472.686 286.864C472.326 286.505 471.839 286.302 471.33 286.3H455.038C454.53 286.302 454.044 286.505 453.685 286.865C453.326 287.224 453.124 287.711 453.123 288.219V298.514L454.919 296.793C454.798 296.468 454.759 296.119 454.803 295.775C454.847 295.431 454.974 295.103 455.172 294.819C455.37 294.535 455.635 294.302 455.942 294.142C456.249 293.982 456.591 293.898 456.938 293.898V293.877Z" fill="#EC5757"/>
<path d="M243.686 113.425C239.711 113.425 235.825 112.247 232.519 110.039C229.214 107.831 226.637 104.694 225.116 101.022C223.595 97.3513 223.197 93.3116 223.972 89.4143C224.748 85.517 226.662 81.9371 229.473 79.1273C232.284 76.3175 235.866 74.404 239.765 73.6287C243.664 72.8535 247.705 73.2514 251.378 74.772C255.051 76.2927 258.19 78.8678 260.399 82.1718C262.608 85.4758 263.786 89.3602 263.786 93.3339C263.78 98.6606 261.661 103.767 257.893 107.534C254.124 111.3 249.015 113.419 243.686 113.425ZM243.686 74.6283C239.985 74.6283 236.367 75.7254 233.289 77.7808C230.212 79.8362 227.813 82.7576 226.397 86.1756C224.98 89.5936 224.61 93.3547 225.332 96.9832C226.054 100.612 227.836 103.945 230.453 106.561C233.071 109.177 236.405 110.958 240.035 111.68C243.665 112.402 247.428 112.031 250.848 110.616C254.267 109.2 257.19 106.802 259.246 103.726C261.303 100.65 262.4 97.0335 262.4 93.3339C262.395 88.3746 260.421 83.62 256.913 80.1132C253.404 76.6065 248.648 74.6339 243.686 74.6283Z" fill="#563D3D"/>
<path d="M233.008 100.617C232.719 100.617 232.436 100.531 232.196 100.371C231.956 100.211 231.769 99.9828 231.658 99.7161C231.547 99.4494 231.518 99.1559 231.574 98.8726C231.63 98.5894 231.769 98.3291 231.973 98.1246L239.4 90.6802C239.515 90.5637 239.653 90.4714 239.805 90.4084C239.956 90.3455 240.119 90.3133 240.283 90.3137H240.284C240.448 90.3133 240.61 90.3453 240.762 90.408C240.913 90.4707 241.051 90.5628 241.166 90.679L244.611 94.1219C244.68 94.1917 244.763 94.247 244.854 94.2847C244.944 94.3223 245.042 94.3415 245.14 94.3412C245.239 94.3415 245.337 94.3223 245.428 94.2846C245.518 94.2469 245.601 94.1915 245.67 94.1217L250.533 89.2527C250.556 89.2295 250.575 89.202 250.587 89.1717C250.6 89.1414 250.606 89.1089 250.606 89.0762C250.606 89.0434 250.6 89.0109 250.587 88.9807C250.575 88.9504 250.556 88.9229 250.533 88.8998L248.96 87.3297C248.855 87.2251 248.783 87.0917 248.754 86.9464C248.725 86.8012 248.74 86.6506 248.796 86.5137C248.853 86.3768 248.949 86.2598 249.072 86.1775C249.196 86.0952 249.34 86.0512 249.489 86.0513H255.077C255.276 86.0515 255.466 86.1304 255.607 86.2708C255.747 86.4111 255.826 86.6014 255.826 86.7999V92.3824C255.826 92.5305 255.782 92.6753 255.7 92.7984C255.618 92.9216 255.501 93.0176 255.364 93.0742C255.227 93.1309 255.076 93.1458 254.931 93.1169C254.786 93.088 254.652 93.0167 254.548 92.912L252.972 91.3368C252.949 91.3136 252.921 91.2952 252.891 91.2826C252.861 91.2701 252.828 91.2637 252.795 91.2637C252.763 91.2637 252.73 91.2701 252.7 91.2826C252.669 91.2952 252.642 91.3136 252.619 91.3368L246.034 97.9145C245.918 98.0307 245.78 98.1228 245.629 98.1855C245.477 98.2483 245.315 98.2803 245.151 98.2798C244.987 98.2803 244.825 98.2482 244.673 98.1854C244.522 98.1227 244.384 98.0305 244.268 97.9143L240.822 94.4697C240.68 94.3336 240.49 94.2577 240.293 94.2577C240.095 94.2577 239.906 94.3336 239.763 94.4697L234.041 100.189C233.906 100.325 233.745 100.433 233.567 100.507C233.39 100.58 233.2 100.618 233.008 100.617Z" fill="#EC5757"/>
<path d="M243.686 166.106C239.711 166.106 235.825 164.927 232.519 162.72C229.214 160.512 226.637 157.374 225.116 153.703C223.595 150.032 223.197 145.992 223.972 142.095C224.748 138.198 226.662 134.618 229.473 131.808C232.284 128.998 235.866 127.085 239.765 126.309C243.664 125.534 247.705 125.932 251.378 127.453C255.051 128.973 258.19 131.549 260.399 134.852C262.608 138.156 263.786 142.041 263.786 146.015C263.78 151.341 261.661 156.448 257.893 160.215C254.124 163.981 249.015 166.1 243.686 166.106Z" fill="#E6E6E6"/>
<path d="M326.959 111.845C322.984 111.845 319.098 110.666 315.792 108.459C312.487 106.251 309.91 103.113 308.389 99.4419C306.868 95.7707 306.47 91.7311 307.245 87.8337C308.021 83.9364 309.935 80.3565 312.746 77.5467C315.557 74.7369 319.139 72.8234 323.038 72.0482C326.937 71.2729 330.978 71.6708 334.651 73.1915C338.324 74.7121 341.463 77.2873 343.672 80.5913C345.881 83.8952 347.059 87.7797 347.059 91.7533C347.053 97.08 344.934 102.187 341.166 105.953C337.397 109.72 332.288 111.839 326.959 111.845Z" fill="#E6E6E6"/>
<path d="M158.271 125.923C154.821 125.927 151.429 126.816 148.42 128.504C152.768 128.888 156.845 130.779 159.946 133.85C163.047 136.92 164.977 140.977 165.402 145.319C165.828 149.662 164.721 154.016 162.275 157.629C159.828 161.242 156.195 163.887 152.004 165.107C152.789 165.367 153.59 165.576 154.402 165.733C155.677 165.984 156.972 166.109 158.271 166.107C163.602 166.107 168.715 163.991 172.485 160.223C176.254 156.455 178.372 151.344 178.372 146.015C178.372 140.686 176.254 135.576 172.485 131.808C168.715 128.04 163.602 125.923 158.271 125.923Z" fill="#E6E6E6"/>
<path d="M150.645 127.43C149.371 127.175 148.075 127.048 146.776 127.05C141.608 127.045 136.635 129.028 132.89 132.587C129.144 136.147 126.913 141.011 126.657 146.17C126.402 151.33 128.143 156.39 131.519 160.302C134.895 164.213 139.647 166.677 144.791 167.181C149.934 167.685 155.075 166.192 159.147 163.01C163.219 159.829 165.91 155.204 166.663 150.093C167.416 144.982 166.172 139.777 163.19 135.558C160.208 131.339 155.716 128.428 150.645 127.43ZM152.004 165.107C149.43 165.855 146.725 166.042 144.073 165.655C141.42 165.268 138.881 164.315 136.629 162.862C134.376 161.409 132.462 159.49 131.016 157.233C129.57 154.977 128.626 152.436 128.248 149.783C127.87 147.13 128.066 144.427 128.824 141.857C129.582 139.286 130.883 136.908 132.64 134.884C134.396 132.86 136.568 131.237 139.007 130.124C141.446 129.012 144.095 128.436 146.776 128.436C147.33 128.436 147.878 128.462 148.42 128.504C152.768 128.888 156.845 130.779 159.946 133.85C163.047 136.92 164.977 140.977 165.402 145.319C165.828 149.662 164.721 154.016 162.275 157.629C159.828 161.242 156.195 163.887 152.004 165.107Z" fill="#563D3D"/>
<path d="M158.479 143.606C157.815 140.695 156.022 138.167 153.495 136.576C150.967 134.985 147.911 134.462 144.998 135.121C144.713 135.186 144.419 135.266 144.159 135.346L146.845 147.144L158.649 144.464C158.599 144.19 158.544 143.89 158.479 143.606Z" fill="#EC5757"/>
<path d="M157.336 146.536L145.527 149.216L142.846 137.417C140.787 138.054 138.954 139.268 137.564 140.914C136.174 142.56 135.286 144.571 135.004 146.706C134.723 148.842 135.06 151.014 135.975 152.964C136.891 154.914 138.347 156.561 140.17 157.709C141.994 158.857 144.108 159.459 146.263 159.443C148.418 159.426 150.524 158.792 152.329 157.616C154.135 156.44 155.565 154.771 156.451 152.807C157.337 150.843 157.64 148.667 157.326 146.536H157.336Z" fill="#EC5757"/>
<path d="M364.837 240.987C360.862 240.987 356.975 239.809 353.67 237.601C350.365 235.393 347.788 232.256 346.267 228.585C344.746 224.913 344.347 220.874 345.123 216.976C345.899 213.079 347.813 209.499 350.624 206.689C353.435 203.879 357.017 201.966 360.916 201.191C364.815 200.416 368.856 200.813 372.529 202.334C376.202 203.855 379.341 206.43 381.55 209.734C383.758 213.038 384.937 216.922 384.937 220.896C384.931 226.223 382.812 231.329 379.043 235.096C375.275 238.862 370.166 240.981 364.837 240.987ZM364.837 202.19C361.136 202.19 357.518 203.287 354.44 205.343C351.363 207.398 348.964 210.32 347.548 213.738C346.131 217.156 345.761 220.917 346.483 224.545C347.205 228.174 348.987 231.507 351.604 234.123C354.221 236.739 357.556 238.52 361.186 239.242C364.816 239.964 368.579 239.593 371.999 238.178C375.418 236.762 378.341 234.364 380.397 231.288C382.454 228.212 383.551 224.596 383.551 220.896C383.545 215.937 381.572 211.182 378.064 207.675C374.555 204.168 369.799 202.196 364.837 202.19Z" fill="#563D3D"/>
<path d="M373.51 228.946C372.774 228.947 372.055 228.729 371.443 228.321C370.831 227.913 370.354 227.332 370.072 226.653C369.79 225.974 369.716 225.226 369.859 224.505C370.002 223.784 370.356 223.121 370.876 222.601C371.396 222.08 372.058 221.726 372.78 221.582C373.501 221.438 374.249 221.511 374.929 221.792C375.609 222.073 376.19 222.549 376.599 223.16C377.008 223.771 377.227 224.49 377.228 225.225C377.228 226.211 376.836 227.157 376.139 227.855C375.442 228.552 374.497 228.945 373.51 228.946ZM364.837 228.946C363.852 228.945 362.907 228.553 362.21 227.857C361.513 227.16 361.121 226.216 361.12 225.231V216.561C361.121 215.577 361.513 214.633 362.21 213.937C362.907 213.241 363.852 212.85 364.837 212.85C365.822 212.85 366.767 213.241 367.464 213.937C368.161 214.633 368.553 215.577 368.555 216.561V225.231C368.553 226.216 368.161 227.16 367.464 227.857C366.768 228.553 365.823 228.945 364.837 228.946ZM356.167 228.946C355.18 228.945 354.235 228.553 353.538 227.856C352.84 227.159 352.448 226.214 352.447 225.228V221.764C352.447 220.778 352.839 219.832 353.536 219.135C354.234 218.438 355.18 218.046 356.167 218.046C357.153 218.046 358.099 218.438 358.797 219.135C359.495 219.832 359.887 220.778 359.887 221.764V225.228C359.885 226.214 359.493 227.159 358.796 227.856C358.098 228.553 357.153 228.945 356.167 228.946Z" fill="#EC5757"/>
<path d="M109.956 311.034L116.083 310.339L116.317 286.388L107.275 287.414L109.956 311.034Z" fill="#A0616A"/>
<path d="M128.544 314.686L109.29 316.87L108.445 309.434L120.261 308.093C122.234 307.87 124.215 308.438 125.769 309.675C127.322 310.911 128.321 312.713 128.544 314.686Z" fill="#412E2E"/>
<path d="M46.9493 310.651L53.1152 310.651L56.0481 286.879L46.9482 286.879L46.9493 310.651Z" fill="#A0616A"/>
<path d="M65.0068 316.374L45.6283 316.374L45.628 308.891L57.5193 308.89C59.5051 308.89 61.4095 309.678 62.8137 311.082C64.2178 312.485 65.0067 314.389 65.0068 316.374Z" fill="#412E2E"/>
<path d="M91.1881 204.345L94.7086 215.791L113.82 257.129L118.85 296.341L107.282 296.843L100.241 260.648L76.1 234.507L54.9767 302.876L45.4209 301.87C45.4209 301.87 53.4679 213.393 64.5325 204.345C64.5325 204.345 82.6381 195.799 91.1881 204.345Z" fill="#412E2E"/>
<path d="M75.5714 154.955C82.3935 154.955 87.924 149.427 87.924 142.608C87.924 135.789 82.3935 130.261 75.5714 130.261C68.7492 130.261 63.2188 135.789 63.2188 142.608C63.2188 149.427 68.7492 154.955 75.5714 154.955Z" fill="#A0616A"/>
<path d="M92.4453 206.607C92.4453 206.607 93.9541 155.33 72.8308 158.849C51.7075 162.368 60.5089 211.885 60.5089 211.885C60.5089 211.885 65.0353 220.934 76.0999 210.88C87.1645 200.826 92.4453 206.607 92.4453 206.607Z" fill="#EC5757"/>
<path d="M136.176 163.926C135.78 164.55 135.251 165.079 134.628 165.477C134.004 165.874 133.302 166.13 132.568 166.227C131.835 166.324 131.09 166.258 130.385 166.036C129.68 165.813 129.032 165.439 128.488 164.939L112.666 173.46L113.494 164.161L128.392 157.496C129.293 156.637 130.477 156.138 131.721 156.094C132.965 156.049 134.182 156.463 135.142 157.255C136.101 158.048 136.736 159.165 136.927 160.394C137.118 161.624 136.851 162.881 136.176 163.926Z" fill="#A0616A"/>
<path d="M75.4533 165.11L101.137 169.449L124.153 158.589L127.647 166.058L102.451 182.099C102.451 182.099 75.7763 183.909 69.6091 176.878C67.2964 174.241 67.032 171.841 67.605 169.871C68.1068 168.257 69.1817 166.882 70.6273 166.005C72.0728 165.128 73.7892 164.81 75.4533 165.11Z" fill="#EC5757"/>
<path d="M74.1024 155.582C74.1614 155.529 74.2073 155.463 74.2363 155.389C74.2654 155.316 74.2769 155.236 74.2699 155.157C74.2629 155.078 74.2376 155.002 74.1961 154.935C74.1545 154.867 74.0978 154.811 74.0304 154.769C72.9335 154.09 72.0397 153.128 71.4431 151.985C70.8465 150.841 70.569 149.558 70.6399 148.27C70.7107 146.983 71.1271 145.738 71.8455 144.667C72.5639 143.595 73.5577 142.737 74.7225 142.182C78.3542 140.452 83.2754 141.798 85.9601 138.472C86.5061 137.761 86.8922 136.94 87.0921 136.066C87.2919 135.191 87.3008 134.284 87.1182 133.406C86.5389 130.265 84.1763 127.932 81.5305 126.333C78.2802 124.369 74.5446 123.355 70.7469 123.404C66.9492 123.453 63.2413 124.565 60.0433 126.613C56.8452 128.661 54.2849 131.563 52.6524 134.99C51.0199 138.418 50.3804 142.234 50.8066 146.007C51.1481 149.03 52.0814 152.42 50.2829 154.875C48.7 157.035 45.7121 157.44 43.0875 157.977C37.4581 159.128 32.0271 161.785 28.2069 166.075C24.3866 170.365 22.3486 176.385 23.5004 182.011C24.6523 187.638 29.2732 192.583 34.9526 193.456C39.5754 194.166 44.3488 192.203 47.7435 188.987C51.1383 185.772 53.2841 181.429 54.6375 176.954C56.244 171.643 56.8777 165.919 59.778 161.188C62.6161 156.558 68.7322 153.24 73.5257 155.651C73.6176 155.699 73.7218 155.718 73.8247 155.705C73.9277 155.693 74.0244 155.65 74.1024 155.582Z" fill="#412E2E"/>
<path d="M432.073 246.974C432.741 246.642 433.329 246.167 433.794 245.583C434.259 244.999 434.59 244.32 434.764 243.594C434.938 242.868 434.951 242.113 434.802 241.382C434.652 240.651 434.344 239.961 433.899 239.362L445.801 173.524L434.695 173.378L426.43 238.483C425.472 239.297 424.846 240.433 424.67 241.677C424.495 242.922 424.782 244.187 425.478 245.234C426.173 246.28 427.229 247.036 428.445 247.356C429.66 247.677 430.951 247.541 432.073 246.974Z" fill="#FFB8B8"/>
<path d="M397.603 243.853L393.387 263.872L393.914 308.65H401.819L405.509 264.925L411.306 246.487L397.603 243.853Z" fill="#FFB8B8"/>
<path d="M423.73 245.355L419.514 265.374L420.041 310.152H427.947L431.636 266.427L437.434 247.989L423.73 245.355Z" fill="#FFB8B8"/>
<path d="M391.153 308.141L403.614 308.11L403.634 315.952L383.327 316.003C383.324 314.973 383.525 313.953 383.917 313C384.308 312.048 384.884 311.182 385.611 310.452C386.338 309.722 387.201 309.142 388.152 308.745C389.103 308.349 390.123 308.144 391.153 308.141Z" fill="#412E2E"/>
<path d="M417.475 308.988L429.936 308.956L429.956 316.799L409.649 316.85C409.646 315.82 409.846 314.8 410.238 313.847C410.63 312.895 411.206 312.029 411.933 311.299C412.659 310.569 413.523 309.989 414.474 309.592C415.425 309.196 416.445 308.99 417.475 308.988Z" fill="#412E2E"/>
<path d="M416.84 145.679C423.989 145.679 429.785 139.887 429.785 132.741C429.785 125.595 423.989 119.802 416.84 119.802C409.691 119.802 403.896 125.595 403.896 132.741C403.896 139.887 409.691 145.679 416.84 145.679Z" fill="#FFB8B8"/>
<path d="M445.447 164.743C441.509 158.566 429.143 143.917 410.743 152.326C409.293 152.996 408.083 154.094 407.276 155.471C406.469 156.849 406.103 158.441 406.228 160.033C407.118 171.78 408.241 201.71 398.657 219.62C398.657 219.62 426.59 228.049 441.875 220.147C441.875 220.147 436.604 184.851 441.875 178.002C443.632 175.814 445.055 173.377 446.098 170.771C446.464 169.785 446.596 168.727 446.483 167.681C446.37 166.635 446.015 165.629 445.447 164.743Z" fill="#563D3D"/>
<path d="M440.294 164.305L445.466 166.459C445.81 166.603 446.106 166.841 446.32 167.147C446.533 167.453 446.655 167.813 446.67 168.186L447.145 179.583L435.55 178.529L440.294 164.305Z" fill="#563D3D"/>
<path d="M400.765 218.566C400.765 218.566 389.17 240.165 391.279 260.183L407.617 262.817L419.212 234.897L416.577 263.344L433.442 263.871C433.442 263.871 444.51 222.78 440.821 219.093L400.765 218.566Z" fill="#412E2E"/>
<path d="M384.297 220.494C385.036 220.381 385.74 220.108 386.361 219.694C386.982 219.279 387.505 218.734 387.892 218.096C388.279 217.458 388.522 216.743 388.603 216.001C388.684 215.259 388.601 214.508 388.36 213.801L411.881 169.481L401.349 165.956L381.515 210.687C380.354 211.17 379.411 212.061 378.864 213.193C378.317 214.324 378.205 215.617 378.548 216.826C378.891 218.035 379.666 219.076 380.725 219.752C381.785 220.428 383.056 220.692 384.297 220.494Z" fill="#FFB8B8"/>
<path d="M415.092 157.484L410.736 155.536C410.736 155.536 407.042 153.247 403.768 158.283C400.493 163.32 396.957 174.357 396.957 174.357L411.171 178.355L415.092 157.484Z" fill="#563D3D"/>
<path d="M418.914 138.97C419.379 137.357 419.244 135.174 417.68 134.564C416.865 134.246 415.955 134.497 415.085 134.586C413.382 134.753 411.677 134.284 410.299 133.269C408.681 132.067 407.681 130.229 406.732 128.451L405.296 125.761C404.977 125.2 404.704 124.614 404.482 124.008C403.683 121.634 404.55 118.885 406.326 117.117C408.182 115.391 410.623 114.434 413.158 114.439C415.672 114.458 418.157 114.989 420.458 116.003C424.548 117.669 428.253 120.157 431.343 123.312C433.363 125.377 435.201 128.068 434.779 130.924C434.451 133.148 432.829 134.929 431.282 136.561L425.672 142.481C424.679 143.529 423.617 144.62 422.23 145.023C420.842 145.426 419.055 144.834 418.677 143.44C418.677 143.44 418.449 140.583 418.914 138.97Z" fill="#412E2E"/>
<path d="M496.473 317H0.527041C0.387261 317 0.253206 316.944 0.154366 316.846C0.055527 316.747 0 316.613 0 316.473C0 316.333 0.055527 316.199 0.154366 316.101C0.253206 316.002 0.387261 315.946 0.527041 315.946H496.473C496.613 315.946 496.747 316.002 496.846 316.101C496.945 316.199 497 316.333 497 316.473C497 316.613 496.945 316.747 496.846 316.846C496.747 316.944 496.613 317 496.473 317Z" fill="#563D3D"/>
<path d="M334.163 155.572H319.406C318.986 155.572 318.584 155.405 318.288 155.109C317.991 154.813 317.825 154.411 317.825 153.992C317.825 153.572 317.991 153.17 318.288 152.874C318.584 152.578 318.986 152.411 319.406 152.411H334.163C334.582 152.411 334.985 152.578 335.281 152.874C335.578 153.17 335.744 153.572 335.744 153.992C335.744 154.411 335.578 154.813 335.281 155.109C334.985 155.405 334.582 155.572 334.163 155.572Z" fill="#EC5757"/>
<path d="M334.163 148.724H319.406C318.986 148.724 318.584 148.557 318.288 148.261C317.991 147.965 317.825 147.563 317.825 147.143C317.825 146.724 317.991 146.322 318.288 146.026C318.584 145.73 318.986 145.563 319.406 145.563H334.163C334.582 145.563 334.985 145.73 335.281 146.026C335.578 146.322 335.744 146.724 335.744 147.143C335.744 147.563 335.578 147.965 335.281 148.261C334.985 148.557 334.582 148.724 334.163 148.724Z" fill="#EC5757"/>
<path d="M334.163 141.875H319.406C318.986 141.875 318.584 141.709 318.288 141.412C317.991 141.116 317.825 140.714 317.825 140.295C317.825 139.876 317.991 139.474 318.288 139.177C318.584 138.881 318.986 138.714 319.406 138.714H334.163C334.582 138.714 334.985 138.881 335.281 139.177C335.578 139.474 335.744 139.876 335.744 140.295C335.744 140.714 335.578 141.116 335.281 141.412C334.985 141.709 334.582 141.875 334.163 141.875Z" fill="#EC5757"/>
</g>
<defs>
<clipPath id="clip0_29_3336">
<rect width="497" height="317" fill="white"/>
</clipPath>
</defs>
</svg>
