<svg width="163" height="163" viewBox="0 0 163 163" fill="none" xmlns="http://www.w3.org/2000/svg">
<path d="M104.941 132.094C92.8954 132.105 80.8495 132.116 68.8036 132.127C65.0392 132.13 61.2749 132.133 57.3639 132.04C56.9529 131.926 56.6885 131.907 56.4241 131.887C54.2881 130.855 52.033 129.927 51.0549 127.525C50.593 126.39 50.2137 125.17 50.1015 123.96C49.9811 122.662 50.0685 121.298 50.3489 120.025C50.556 119.085 51.1527 118.203 51.6938 117.372C52.4072 116.277 53.2689 115.279 54.0059 114.197C54.7259 113.14 55.3297 112.004 56.0552 110.952C57.3149 109.124 58.6459 107.346 59.9135 105.525C60.5855 104.559 61.2031 103.554 61.8162 102.549C62.4467 101.515 63.03 100.453 63.6549 99.4163C65.0138 97.1614 66.2872 94.8465 67.7765 92.6806C69.9015 89.5903 70.7207 86.0874 71.4219 82.2901C71.5081 82.0005 71.5923 81.9257 71.5926 81.8506C71.6124 76.173 71.6314 70.4953 71.6158 64.8177C71.6152 64.6093 71.27 64.4019 71.0853 64.194C71.0853 64.194 71.1091 64.1929 71.1191 64.112C71.0172 63.9933 70.9052 63.9554 70.7932 63.9176C69.0681 62.2448 68.6439 60.217 69.6015 58.0867C70.2309 56.6867 71.6 55.9052 73.2411 55.4997C78.9911 55.6116 84.5692 55.6439 90.1474 55.6607C90.2837 55.6612 90.4204 55.4891 90.557 55.3975C94.7376 56.9147 95.6445 61.2796 92.5185 64.1178C92.216 64.3166 92.1177 64.5051 92.0193 64.6937C92.1607 64.6273 92.302 64.5608 92.4434 64.4943C92.4607 64.6716 92.478 64.8489 92.3854 64.9851C92.1441 65.2773 92.013 65.6107 91.8818 65.9441C92.08 66.2765 92.4302 66.6004 92.4495 66.9429C92.5228 68.2457 92.4892 69.5546 92.3903 70.831C92.1502 71.1257 91.9011 71.4495 91.8984 71.7754C91.8714 75.0355 91.8802 78.2959 91.8975 81.5561C91.8987 81.7908 92.0452 82.0248 92.1241 82.2592C92.4176 85.3672 93.4337 88.3081 94.8051 91.035C96.5371 94.4789 98.6178 97.7588 100.703 101.01C102.209 103.358 104.022 105.506 105.596 107.812C106.862 109.667 107.937 111.651 109.168 113.531C110.347 115.331 111.906 116.943 112.757 118.875C113.467 120.489 113.744 122.478 113.593 124.248C113.296 127.717 111.188 130.051 107.995 131.405C107.758 131.506 107.559 131.694 107.145 131.847C106.876 131.853 106.806 131.854 106.735 131.854C106.735 131.854 106.654 131.87 106.535 131.813C105.924 131.869 105.433 131.981 104.941 132.094ZM73.6653 59.1562C73.5817 59.2051 73.5365 59.2779 73.3691 59.48C72.4256 60.3597 73.3445 60.8648 73.8885 61.6681C74.1041 61.7094 74.3197 61.7864 74.5354 61.7867C79.3162 61.7935 84.0971 61.796 88.8778 61.7812C89.161 61.7803 89.4437 61.6277 89.8674 61.4244C90.4836 60.7817 91.3723 60.1577 89.9768 59.2421C89.8968 59.2049 89.8167 59.1676 89.7548 59.1297C89.7548 59.1297 89.7536 59.1478 89.7299 58.9315C89.4568 58.8241 89.1842 58.6243 88.9106 58.6231C84.1636 58.6022 79.4164 58.5959 74.6696 58.6272C74.3711 58.6292 74.0749 58.9661 73.7763 59.1284C73.7763 59.1284 73.7951 59.1274 73.6653 59.1562ZM88.3534 65.0778C84.1206 65.0406 79.8878 64.9995 75.6549 64.9792C75.4694 64.9783 75.283 65.1681 75.1056 65.249C75.1056 65.249 75.1257 65.2574 74.9254 65.3227C74.8127 65.7277 74.6082 66.131 74.601 66.5379C74.4906 72.7834 74.4033 79.0294 74.3287 85.2755C74.3265 85.4586 74.5217 85.6441 74.6059 86.0331C73.9869 87.8992 73.3726 89.7669 72.7458 91.6304C72.5915 92.089 72.4485 92.5634 72.2117 92.9802C70.9639 95.1768 69.7293 97.3829 68.4084 99.5356C67.2929 101.354 66.0904 103.12 64.8826 104.879C63.0984 107.478 61.249 110.032 59.4779 112.639C58.2842 114.396 57.1986 116.226 56.0251 117.998C55.07 119.439 53.6513 120.639 53.6889 122.579C53.7196 124.164 53.6865 125.801 55.0838 126.92C56.47 128.03 58.0032 128.665 59.872 128.658C74.0734 128.61 88.275 128.612 102.476 128.645C105.003 128.651 107.242 128.315 108.936 126.11C109.907 124.848 110.35 121.823 109.43 120.522C107.987 118.484 106.553 116.439 105.159 114.368C104.434 113.292 103.849 112.12 103.114 111.051C102.471 110.117 101.636 109.315 101.011 108.372C99.8356 106.599 98.9898 104.546 97.571 103.013C95.6009 100.884 94.6202 98.2227 93.0926 95.8697C91.9893 94.1701 91.3808 92.1564 90.4637 90.327C89.3985 88.2021 88.7736 85.9848 88.8504 83.4376C88.882 83.3091 88.9411 83.1805 88.9411 83.0519C88.9436 77.4611 88.9479 71.8703 88.9223 66.2797C88.9206 65.926 88.6818 65.5734 88.3534 65.0778Z" fill="#EC5757"/>
<path d="M85.3482 48.5324C83.6077 51.7524 79.5264 51.0495 77.9702 48.3105C76.5912 45.8836 78.4158 42.5849 81.2285 42.344C84.3131 42.0799 86.4846 44.0349 86.0292 47.4985C85.9842 47.8406 85.6325 48.1424 85.3482 48.5324Z" fill="#EC5757"/>
<path d="M76.036 30.1074C78.5979 30.1776 80.1453 31.4289 80.4034 33.1595C80.5916 34.4217 79.8631 36.0456 78.6743 36.7526C77.2217 37.6165 75.9319 37.2879 74.6109 36.5755C72.6301 35.5071 73.4889 33.7924 73.6239 32.5124C73.7148 31.6507 75.1182 30.9274 76.036 30.1074Z" fill="#EC5757"/>
<path d="M71.0928 64.3184C71.2705 64.4019 71.6157 64.6093 71.6163 64.8177C71.6319 70.4953 71.6129 76.173 71.5931 81.8506C71.5928 81.9257 71.5086 82.0005 71.4211 82.1783C71.2919 81.8895 71.1313 81.4982 71.1297 81.1063C71.107 75.5518 71.106 69.9972 71.0928 64.3184Z" fill="#EC5757"/>
<path d="M90.4553 55.3464C90.4202 55.489 90.2834 55.6611 90.1472 55.6607C84.569 55.6439 78.9909 55.6115 73.3389 55.499C73.5464 55.3227 73.8276 55.1474 74.1094 55.1464C79.3649 55.1278 84.6204 55.1286 89.8759 55.1349C90.0353 55.1351 90.1946 55.2396 90.4553 55.3464Z" fill="#7D7D7D"/>
<path d="M92.1818 82.1629C92.0458 82.0249 91.8993 81.791 91.8981 81.5562C91.8808 78.296 91.8721 75.0356 91.899 71.7755C91.9017 71.4496 92.1508 71.1258 92.3666 70.9336C92.4441 74.2269 92.4493 77.3877 92.4283 80.5483C92.425 81.0548 92.305 81.5604 92.1818 82.1629Z" fill="#EC5757"/>
<path d="M105.048 132.104C105.433 131.981 105.924 131.869 106.494 131.818C106.1 131.958 105.627 132.036 105.048 132.104Z" fill="#494949"/>
<path d="M56.4912 131.947C56.689 131.906 56.9534 131.925 57.2404 132.024C57.0279 132.071 56.7929 132.039 56.4912 131.947Z" fill="#494949"/>
<path d="M91.9707 66.0799C92.0127 65.6104 92.1439 65.277 92.3605 65.0713C92.3173 65.538 92.1886 65.8771 91.9707 66.0799Z" fill="#CBCBCB"/>
<path d="M92.4434 64.404C92.3022 64.5602 92.1609 64.6267 92.0195 64.6932C92.1179 64.5046 92.2162 64.316 92.4433 64.1582C92.5291 64.2307 92.4862 64.2724 92.4434 64.404Z" fill="#B2B2B2"/>
<path d="M70.8262 63.9871C70.9058 63.9555 71.0178 63.9933 71.1202 64.1239C71.0265 64.1633 70.9425 64.11 70.8262 63.9871Z" fill="#B2B2B2"/>
<path d="M106.78 131.902C106.806 131.854 106.876 131.853 107.052 131.855C107.047 131.889 106.936 131.919 106.78 131.902Z" fill="#494949"/>
<path d="M75.0259 65.29C75.1296 71.1672 75.1472 77.077 75.1215 82.9867C75.1176 83.889 74.9133 84.7904 74.7135 85.7603C74.5221 85.6441 74.3269 85.4586 74.3291 85.2755C74.4037 79.0294 74.491 72.7834 74.6014 66.5379C74.6086 66.131 74.8131 65.7277 75.0259 65.29Z" fill="#EC5757"/>
<path d="M88.7836 83.5226C88.6171 83.1047 88.4338 82.6017 88.4317 82.0979C88.409 76.665 88.4149 71.2319 88.4457 65.5913C88.5037 65.3291 88.5288 65.2744 88.5538 65.2197C88.6823 65.5728 88.9212 65.9255 88.9228 66.2792C88.9485 71.8698 88.9442 77.4606 88.9417 83.0513C88.9417 83.1799 88.8826 83.3085 88.7836 83.5226Z" fill="#EC5757"/>
<path d="M89.7416 59.0395C84.5114 59.1465 79.2694 59.1454 73.9023 59.1456C74.0746 58.966 74.3709 58.6291 74.6693 58.6271C79.4162 58.5958 84.1634 58.6021 88.9104 58.623C89.1839 58.6242 89.4566 58.824 89.7416 59.0395Z" fill="#7D7D7D"/>
<path d="M73.8291 61.5684C79.0066 61.4922 84.2439 61.5153 89.6039 61.5419C89.4439 61.6273 89.1612 61.7799 88.8781 61.7808C84.0973 61.7956 79.3164 61.7931 74.5356 61.7864C74.3199 61.7861 74.1044 61.7091 73.8291 61.5684Z" fill="#B2B2B2"/>
<path d="M88.4534 65.1493C88.5282 65.2752 88.5031 65.3299 88.4476 65.4695C87.9131 65.4539 87.4095 65.2693 86.9047 65.2663C83.0527 65.243 79.2004 65.2551 75.2227 65.2628C75.2831 65.1684 75.4695 64.9786 75.655 64.9795C79.8879 64.9998 84.1206 65.0409 88.4534 65.1493Z" fill="#7D7D7D"/>
<path d="M89.9925 59.3104C89.932 59.3386 89.8563 59.2981 89.7588 59.1938C89.8171 59.1672 89.8972 59.2044 89.9925 59.3104Z" fill="#7D7D7D"/>
<path d="M73.7306 59.1416C73.781 59.2195 73.7354 59.2922 73.5944 59.3599C73.537 59.2776 73.5822 59.2049 73.7306 59.1416Z" fill="#7D7D7D"/>
<path d="M68.7698 126.738C65.2802 126.667 61.7898 126.624 58.3015 126.513C56.526 126.456 54.9009 124.214 55.5534 122.579C56.1549 121.072 56.9734 119.63 57.8564 118.262C59.5757 115.599 61.2925 112.919 63.2431 110.428C64.1371 109.286 64.3059 107.568 65.9724 106.99C67.2056 106.563 68.7645 106.845 69.7738 107.671C72.4302 109.844 75.4087 110.734 78.8649 109.953C82.0777 109.228 84.6118 107.566 86.9193 105.241C90.3734 101.76 94.1631 102.627 96.7126 105.393C97.5903 106.345 98.108 107.62 98.8617 108.698C101.622 112.645 104.419 116.566 107.188 120.507C108.112 121.821 108.413 123.304 107.649 124.733C107.041 125.871 106.038 126.699 104.336 126.563C92.6051 126.547 81.1075 126.533 69.6099 126.53C69.3299 126.53 69.0498 126.666 68.7698 126.738Z" fill="#EC5757"/>
<path d="M81.2124 96.7131C83.4391 99.4724 82.7956 100.609 80.8415 102.801C79.846 103.917 77.2438 103.938 75.8722 103.087C74.5791 102.284 73.5965 100.016 74.0429 98.6056C75.0697 95.3608 78.0617 94.4836 81.2124 96.7131Z" fill="#EC5757"/>
<path d="M85.5085 86.3074C86.3792 87.4764 86.5577 88.9043 85.7523 89.9536C85.1653 90.7183 83.8964 91.1833 82.8688 91.3238C81.8248 91.4665 80.9766 90.7878 80.5568 89.6318C80.1545 88.5244 80.1192 87.5197 80.7904 86.4056C82.4392 85.3685 83.9727 85.4253 85.5085 86.3074Z" fill="#EC5757"/>
<path d="M81.975 77.1895C80.9292 77.9654 79.8382 78.0608 79.0456 77.2055C78.3317 76.4351 78.5653 75.3651 79.2456 74.596C79.5486 74.2535 80.1513 74.0434 80.6313 74.0173C81.7002 73.9591 82.13 74.8704 82.4278 75.6512C82.575 76.0369 82.1948 76.6239 81.975 77.1895Z" fill="#EC5757"/>
<path d="M68.8906 126.752C69.0499 126.666 69.33 126.53 69.61 126.53C81.1076 126.533 92.6052 126.548 104.222 126.543C103.837 126.607 103.333 126.759 102.828 126.759C91.5557 126.772 80.2835 126.767 68.8906 126.752Z" fill="#CBCBCB"/>
<path d="M85.5113 86.2014C83.9724 85.4256 82.4389 85.3689 80.8082 86.3046C80.7323 86.1212 80.6949 85.8928 80.7905 85.7965C81.735 84.8447 84.639 85.0395 85.5113 86.2014Z" fill="#7D7D7D"/>
</svg>
