<svg width="18" height="19" viewBox="0 0 18 19" fill="none" xmlns="http://www.w3.org/2000/svg">
<path d="M7.29638 13.574C7.26896 13.683 6.58341 16.2501 2.81255 16.2501C2.66337 16.2501 2.5203 16.1908 2.41481 16.0853C2.30932 15.9799 2.25005 15.8368 2.25005 15.6876C2.25005 11.9167 4.81716 11.2312 4.92615 11.2038C5.07095 11.1676 5.22419 11.1904 5.35216 11.2672C5.48014 11.344 5.57235 11.4685 5.60853 11.6133C5.64471 11.7581 5.62188 11.9114 5.54507 12.0394C5.46826 12.1673 5.34376 12.2595 5.19896 12.2957C5.13568 12.3133 3.62255 12.7556 3.40177 15.0984C5.74458 14.8776 6.18755 13.3673 6.20583 13.297C6.24313 13.1524 6.33635 13.0285 6.46498 12.9526C6.59361 12.8767 6.74712 12.855 6.89173 12.8923C7.03635 12.9296 7.16023 13.0228 7.23611 13.1515C7.312 13.2801 7.33368 13.4336 7.29638 13.5782V13.574ZM13.8354 8.83494L13.5001 9.17033V13.2717C13.5009 13.42 13.4722 13.567 13.4157 13.7041C13.3592 13.8412 13.276 13.9657 13.171 14.0704L10.7579 16.4821C10.6538 16.5869 10.53 16.6701 10.3936 16.7268C10.2573 16.7835 10.111 16.8127 9.96333 16.8126C9.84144 16.8126 9.72035 16.7929 9.60474 16.7542C9.40624 16.6886 9.23007 16.5687 9.09612 16.4082C8.96218 16.2476 8.87581 16.0528 8.84677 15.8458L8.46919 13.1395L5.36068 10.031L2.65576 9.65337C2.44844 9.6243 2.25334 9.53795 2.09242 9.40404C1.93149 9.27013 1.81113 9.09397 1.74486 8.89539C1.67859 8.6968 1.66905 8.48367 1.71731 8.27995C1.76557 8.07624 1.86971 7.89003 2.01802 7.74228L4.42974 5.32916C4.53442 5.2241 4.65895 5.1409 4.79607 5.08441C4.9332 5.02792 5.08019 4.99926 5.22849 5.00009H9.32982L9.66521 4.6647C11.5411 2.78947 13.8017 2.70861 14.6862 2.76134C14.9605 2.77801 15.2192 2.89448 15.4135 3.08878C15.6078 3.28307 15.7242 3.54176 15.7409 3.81603C15.7922 4.69845 15.7114 6.959 13.8361 8.83494H13.8354ZM2.81255 8.53962L5.42466 8.90384L8.20482 6.12509H5.22849L2.81255 8.53962ZM6.42099 9.50009L9.00005 12.0792L13.0395 8.0397C13.5839 7.499 14.0062 6.84803 14.2781 6.13055C14.55 5.41307 14.6652 4.6457 14.6159 3.88002C13.8506 3.83256 13.084 3.94894 12.3673 4.2214C11.6506 4.49385 11.0003 4.9161 10.4597 5.45994L6.42099 9.50009ZM12.3751 10.2953L9.5956 13.0748L9.96123 15.6876L12.3751 13.2717V10.2953Z" fill="#818187"/>
</svg>
