<svg width="19" height="19" viewBox="0 0 19 19" fill="none" xmlns="http://www.w3.org/2000/svg">
<path d="M16.49 7.6625L15.0725 7.19L15.74 5.855C15.8077 5.71527 15.8303 5.55798 15.8048 5.40483C15.7793 5.25169 15.7068 5.11024 15.5975 5L14 3.4025C13.8892 3.29157 13.7464 3.21816 13.5917 3.1926C13.437 3.16704 13.2781 3.19061 13.1375 3.26L11.8025 3.9275L11.33 2.51C11.2801 2.36225 11.1854 2.23372 11.059 2.14231C10.9327 2.05091 10.781 2.00116 10.625 2H8.375C8.21777 1.9996 8.06439 2.04862 7.93653 2.14013C7.80868 2.23165 7.71282 2.36104 7.6625 2.51L7.19 3.9275L5.855 3.26C5.71527 3.19234 5.55798 3.16971 5.40483 3.19523C5.25169 3.22075 5.11024 3.29318 5 3.4025L3.4025 5C3.29157 5.11083 3.21816 5.25363 3.1926 5.40834C3.16704 5.56305 3.19061 5.72189 3.26 5.8625L3.9275 7.1975L2.51 7.67C2.36225 7.7199 2.23372 7.81462 2.14231 7.94098C2.05091 8.06734 2.00116 8.21905 2 8.375V10.625C1.9996 10.7822 2.04862 10.9356 2.14013 11.0635C2.23165 11.1913 2.36104 11.2872 2.51 11.3375L3.9275 11.81L3.26 13.145C3.19234 13.2847 3.16971 13.442 3.19523 13.5952C3.22075 13.7483 3.29318 13.8898 3.4025 14L5 15.5975C5.11083 15.7084 5.25363 15.7818 5.40834 15.8074C5.56305 15.833 5.72189 15.8094 5.8625 15.74L7.1975 15.0725L7.67 16.49C7.72032 16.639 7.81618 16.7684 7.94403 16.8599C8.07189 16.9514 8.22527 17.0004 8.3825 17H10.6325C10.7897 17.0004 10.9431 16.9514 11.071 16.8599C11.1988 16.7684 11.2947 16.639 11.345 16.49L11.8175 15.0725L13.1525 15.74C13.2913 15.806 13.4471 15.8277 13.5987 15.8022C13.7503 15.7767 13.8904 15.7052 14 15.5975L15.5975 14C15.7084 13.8892 15.7818 13.7464 15.8074 13.5917C15.833 13.437 15.8094 13.2781 15.74 13.1375L15.0725 11.8025L16.49 11.33C16.6378 11.2801 16.7663 11.1854 16.8577 11.059C16.9491 10.9327 16.9988 10.781 17 10.625V8.375C17.0004 8.21777 16.9514 8.06439 16.8599 7.93653C16.7684 7.80868 16.639 7.71282 16.49 7.6625ZM15.5 10.085L14.6 10.385C14.393 10.4521 14.2032 10.5635 14.0435 10.7113C13.8839 10.8592 13.7584 11.04 13.6756 11.2412C13.5928 11.4424 13.5548 11.6592 13.5642 11.8766C13.5736 12.094 13.6302 12.3067 13.73 12.5L14.1575 13.355L13.3325 14.18L12.5 13.73C12.3077 13.6342 12.097 13.5808 11.8822 13.5735C11.6675 13.5662 11.4537 13.6051 11.2552 13.6875C11.0568 13.77 10.8785 13.8942 10.7322 14.0516C10.5859 14.2091 10.4752 14.3961 10.4075 14.6L10.1075 15.5H8.915L8.615 14.6C8.54787 14.393 8.43652 14.2032 8.28868 14.0435C8.14083 13.8839 7.96003 13.7584 7.75882 13.6756C7.5576 13.5928 7.34079 13.5548 7.12342 13.5642C6.90605 13.5736 6.69333 13.6302 6.5 13.73L5.645 14.1575L4.82 13.3325L5.27 12.5C5.36982 12.3067 5.42639 12.094 5.43579 11.8766C5.44518 11.6592 5.40718 11.4424 5.32441 11.2412C5.24164 11.04 5.11609 10.8592 4.95646 10.7113C4.79684 10.5635 4.60696 10.4521 4.4 10.385L3.5 10.085V8.915L4.4 8.615C4.60696 8.54787 4.79684 8.43652 4.95646 8.28868C5.11609 8.14083 5.24164 7.96003 5.32441 7.75882C5.40718 7.5576 5.44518 7.34079 5.43579 7.12342C5.42639 6.90605 5.36982 6.69333 5.27 6.5L4.8425 5.6675L5.6675 4.8425L6.5 5.27C6.69333 5.36982 6.90605 5.42639 7.12342 5.43579C7.34079 5.44518 7.5576 5.40718 7.75882 5.32441C7.96003 5.24164 8.14083 5.11609 8.28868 4.95646C8.43652 4.79684 8.54787 4.60696 8.615 4.4L8.915 3.5H10.085L10.385 4.4C10.4521 4.60696 10.5635 4.79684 10.7113 4.95646C10.8592 5.11609 11.04 5.24164 11.2412 5.32441C11.4424 5.40718 11.6592 5.44518 11.8766 5.43579C12.094 5.42639 12.3067 5.36982 12.5 5.27L13.355 4.8425L14.18 5.6675L13.73 6.5C13.6342 6.69234 13.5808 6.90301 13.5735 7.11777C13.5662 7.33253 13.6051 7.54635 13.6875 7.74476C13.77 7.94318 13.8942 8.12155 14.0516 8.26781C14.2091 8.41407 14.3961 8.5248 14.6 8.5925L15.5 8.8925V10.085ZM9.5 6.5C8.90666 6.5 8.32664 6.67595 7.83329 7.00559C7.33994 7.33524 6.95543 7.80377 6.72836 8.35195C6.5013 8.90013 6.44189 9.50333 6.55765 10.0853C6.6734 10.6672 6.95912 11.2018 7.37868 11.6213C7.79824 12.0409 8.33279 12.3266 8.91473 12.4424C9.49667 12.5581 10.0999 12.4987 10.6481 12.2716C11.1962 12.0446 11.6648 11.6601 11.9944 11.1667C12.3241 10.6734 12.5 10.0933 12.5 9.5C12.5 8.70435 12.1839 7.94129 11.6213 7.37868C11.0587 6.81607 10.2957 6.5 9.5 6.5V6.5ZM9.5 11C9.20333 11 8.91332 10.912 8.66665 10.7472C8.41997 10.5824 8.22771 10.3481 8.11418 10.074C8.00065 9.79994 7.97095 9.49834 8.02882 9.20737C8.0867 8.9164 8.22956 8.64912 8.43934 8.43934C8.64912 8.22956 8.9164 8.0867 9.20737 8.02882C9.49834 7.97095 9.79994 8.00065 10.074 8.11418C10.3481 8.22771 10.5824 8.41997 10.7472 8.66665C10.912 8.91332 11 9.20333 11 9.5C11 9.89783 10.842 10.2794 10.5607 10.5607C10.2794 10.842 9.89783 11 9.5 11Z" fill="#FF0000"/>
</svg>
