<svg width="30" height="31" viewBox="0 0 30 31" fill="none" xmlns="http://www.w3.org/2000/svg">
<rect y="0.333008" width="30" height="30" rx="15" fill="#E5E7EB"/>
<g clip-path="url(#clip0_29_4724)">
<path fill-rule="evenodd" clip-rule="evenodd" d="M10.5 10.833C10.5 10.0051 11.1721 9.33301 12 9.33301H15.4395C15.8373 9.33309 16.2188 9.49118 16.5 9.77251L19.0605 12.333C19.3418 12.6142 19.4999 12.9957 19.5 13.3935V19.833C19.5 20.6609 18.8279 21.333 18 21.333H12C11.1721 21.333 10.5 20.6609 10.5 19.833V10.833M12 15.333C12 14.9191 12.3361 14.583 12.75 14.583H17.25C17.6639 14.583 18 14.9191 18 15.333C18 15.7469 17.6639 16.083 17.25 16.083H12.75C12.3361 16.083 12 15.7469 12 15.333M12.75 17.583C12.3361 17.583 12 17.9191 12 18.333C12 18.7469 12.3361 19.083 12.75 19.083H17.25C17.6639 19.083 18 18.7469 18 18.333C18 17.9191 17.6639 17.583 17.25 17.583H12.75" fill="#374151"/>
</g>
<defs>
<clipPath id="clip0_29_4724">
<rect width="15" height="15" fill="white" transform="translate(7.5 7.83301)"/>
</clipPath>
</defs>
</svg>
