<svg width="19" height="19" viewBox="0 0 19 19" fill="none" xmlns="http://www.w3.org/2000/svg">
<g clip-path="url(#clip0_29_3885)">
<path d="M4.67586 16.418H1.41055V5.90273H4.67586M3.04145 4.46836C1.9973 4.46836 1.15039 3.60352 1.15039 2.55938C1.15039 1.51567 1.99774 0.66832 3.04145 0.66832C4.08515 0.66832 4.9325 1.51567 4.9325 2.55938C4.9325 3.60352 4.08523 4.46836 3.04145 4.46836M16.8969 16.418H13.6386V11.2992C13.6386 10.0793 13.614 8.51484 11.9409 8.51484C10.2432 8.51484 9.98305 9.84023 9.98305 11.2113V16.418H6.72125V5.90273H9.85297V7.33711H9.89867C10.3346 6.51094 11.3995 5.63906 12.9882 5.63906C16.2929 5.63906 16.9004 7.81523 16.9004 10.6418V16.418" fill="#0077B5"/>
</g>
<defs>
<clipPath id="clip0_29_3885">
<rect width="18" height="18" fill="white" transform="translate(0.0253906 0.667969)"/>
</clipPath>
</defs>
</svg>
