<svg width="19" height="19" viewBox="0 0 19 19" fill="none" xmlns="http://www.w3.org/2000/svg">
<g clip-path="url(#clip0_29_3888)">
<path d="M9.44727 0.896484C5.84023 0.896484 2.27539 3.30117 2.27539 7.19297C2.27539 9.66797 3.66758 11.0742 4.51133 11.0742C4.85938 11.0742 5.05977 10.1039 5.05977 9.82969C5.05977 9.50273 4.22656 8.80664 4.22656 7.44609C4.22656 4.61953 6.37813 2.61563 9.1625 2.61563C11.5566 2.61563 13.3285 3.97617 13.3285 6.47578C13.3285 8.34258 12.5797 11.8441 10.1539 11.8441C9.27852 11.8441 8.52969 11.2113 8.52969 10.3043C8.52969 8.97539 9.45781 7.68867 9.45781 6.31758C9.45781 3.99023 6.15664 4.41211 6.15664 7.22461C6.15664 7.81523 6.23047 8.46914 6.49414 9.00703C6.00898 11.0953 5.01758 14.2066 5.01758 16.3582C5.01758 17.0227 5.1125 17.6766 5.17578 18.341C5.29531 18.4746 5.23555 18.4605 5.41836 18.3937C7.19023 15.968 7.12695 15.4934 7.92852 12.3188C8.36094 13.1414 9.47891 13.5844 10.3648 13.5844C14.0984 13.5844 15.7754 9.9457 15.7754 6.66563C15.7754 3.17461 12.759 0.896484 9.44727 0.896484" fill="#DF0018"/>
</g>
<defs>
<clipPath id="clip0_29_3888">
<rect width="18" height="18" fill="white" transform="translate(0.0253906 0.667969)"/>
</clipPath>
</defs>
</svg>
