<svg width="21" height="14" viewBox="0 0 21 14" fill="none" xmlns="http://www.w3.org/2000/svg">
<path d="M15.7269 1.1403L11.8081 7.12958C12.1228 7.51155 12.2941 7.99145 12.2922 8.48627C12.2913 9.05722 12.0638 9.6045 11.6596 10.0079C11.2554 10.4113 10.7075 10.6379 10.1363 10.6379C9.56506 10.6379 9.01721 10.4113 8.61299 10.0079C8.20877 9.6045 7.98123 9.05722 7.98034 8.48627C7.9814 8.34761 7.99385 8.20927 8.01759 8.07265L5.43128 6.56706C5.09734 6.89018 4.66754 7.0963 4.20642 7.15447C3.74529 7.21264 3.27771 7.11974 2.87392 6.88968L0.12207 9.46657V12.0352C0.12316 12.5431 0.325251 13.03 0.684207 13.3896C1.04316 13.7492 1.52985 13.9522 2.03803 13.9544H18.3297C18.8383 13.9522 19.3254 13.7493 19.685 13.3899C20.0447 13.0304 20.2477 12.5435 20.2498 12.0352V2.5094L17.618 0.759766C17.3537 0.96505 17.0454 1.10627 16.7172 1.1723C16.3891 1.23833 16.05 1.22737 15.7269 1.1403Z" fill="#EC5757"/>
</svg>
