<svg width="95" height="74" viewBox="0 0 95 74" fill="none" xmlns="http://www.w3.org/2000/svg">
<path d="M87.3962 71.242C92.1357 67.239 95.0145 60.9154 94.2595 54.7594C93.5045 48.6034 88.8285 42.9441 82.763 41.6368C76.6975 40.3296 69.7832 43.9483 67.9409 49.8707C66.927 38.4525 65.7587 26.5559 59.6853 16.8322C54.186 8.02764 44.6611 1.72767 34.3383 0.60059C24.0155 -0.526492 13.1468 3.73033 6.70887 11.8743C0.2709 20.0183 -1.30542 31.858 3.20356 41.208C6.52518 48.0959 12.6448 53.2219 19.0566 57.3922C39.7754 70.7543 64.6249 76.1881 89.033 72.6938L87.3962 71.242Z" fill="#F2F2F2"/>
</svg>
