<svg width="41" height="41" viewBox="0 0 41 41" fill="none" xmlns="http://www.w3.org/2000/svg">
<path d="M20.7839 40.2342C16.8084 40.2342 12.9222 39.0559 9.61675 36.8482C6.31128 34.6406 3.73497 31.5027 2.21363 27.8316C0.692287 24.1604 0.294256 20.1207 1.06983 16.2234C1.8454 12.3261 3.75975 8.74616 6.57082 5.93635C9.3819 3.12654 12.9634 1.21304 16.8625 0.437815C20.7615 -0.337409 24.803 0.0604595 28.4759 1.58112C32.1487 3.10177 35.288 5.67691 37.4966 8.98089C39.7053 12.2849 40.8841 16.1693 40.8841 20.143C40.8781 25.4697 38.7585 30.5764 34.9903 34.343C31.222 38.1095 26.1129 40.2282 20.7839 40.2342ZM20.7839 1.43737C17.0826 1.43737 13.4644 2.53444 10.3869 4.58984C7.30938 6.64524 4.91076 9.56665 3.49434 12.9847C2.07791 16.4027 1.70733 20.1637 2.42941 23.7923C3.1515 27.4208 4.93384 30.7538 7.55105 33.3699C10.1683 35.9859 13.5028 37.7674 17.1329 38.4892C20.7631 39.2109 24.5259 38.8405 27.9454 37.4247C31.3649 36.0089 34.2877 33.6114 36.344 30.5353C38.4004 27.4591 39.4979 23.8426 39.4979 20.143C39.4923 15.1837 37.5188 10.4291 34.0105 6.92232C30.5021 3.41556 25.7454 1.44299 20.7839 1.43737Z" fill="#563D3D"/>
</svg>
