<svg width="31" height="32" viewBox="0 0 31 32" fill="none" xmlns="http://www.w3.org/2000/svg">
<path d="M14.9134 24.9699C15.3782 23.357 15.2439 21.1743 13.6794 20.5642C12.8643 20.2463 11.9548 20.497 11.0844 20.5861C9.3811 20.7533 7.67622 20.2843 6.29848 19.2694C4.6802 18.0669 3.68063 16.2289 2.73147 14.4506L1.29581 11.761C0.976343 11.2002 0.703881 10.614 0.481247 10.0083C-0.317569 7.63381 0.549813 4.8848 2.32544 3.11685C4.18108 1.39135 6.62291 0.434404 9.15736 0.439473C11.6719 0.457519 14.1562 0.989497 16.4575 2.0027C20.5479 3.66925 24.2526 6.15703 27.3426 9.31211C29.3622 11.3772 31.2007 14.0675 30.7788 16.9244C30.4503 19.1483 28.8285 20.929 27.2819 22.561L21.6717 28.4807C20.6781 29.529 19.6165 30.6201 18.2292 31.0232C16.8419 31.4262 15.0547 30.8341 14.6764 29.4405C14.6764 29.4405 14.4485 26.5829 14.9134 24.9699Z" fill="#412E2E"/>
</svg>
