<svg width="41" height="41" viewBox="0 0 41 41" fill="none" xmlns="http://www.w3.org/2000/svg">
<path d="M20.6862 40.4256C16.7107 40.4256 12.8246 39.2473 9.51909 37.0396C6.21361 34.832 3.63734 31.6942 2.116 28.023C0.594654 24.3518 0.196592 20.3121 0.972164 16.4148C1.74774 12.5175 3.66209 8.93756 6.47316 6.12776C9.28423 3.31795 12.8658 1.40445 16.7648 0.629222C20.6639 -0.146003 24.7054 0.251866 28.3782 1.77252C32.0511 3.29318 35.1903 5.86833 37.3989 9.17231C39.6076 12.4763 40.7865 16.3607 40.7865 20.3344C40.7805 25.6611 38.6608 30.7679 34.8926 34.5344C31.1244 38.3009 26.0153 40.4196 20.6862 40.4256ZM20.6862 1.62878C16.9849 1.62878 13.3668 2.72585 10.2893 4.78125C7.21175 6.83664 4.81309 9.75806 3.39667 13.1761C1.98025 16.5941 1.60966 20.3551 2.33175 23.9837C3.05383 27.6122 4.83618 30.9452 7.45338 33.5613C10.0706 36.1773 13.4051 37.9588 17.0353 38.6806C20.6654 39.4023 24.4282 39.0319 27.8478 37.6161C31.2673 36.2004 34.19 33.8028 36.2464 30.7267C38.3027 27.6506 39.4002 24.034 39.4002 20.3344C39.3946 15.3751 37.4212 10.6205 33.9128 7.11373C30.4045 3.60696 25.6477 1.6344 20.6862 1.62878Z" fill="#563D3D"/>
</svg>
