<svg width="26" height="17" viewBox="0 0 26 17" fill="none" xmlns="http://www.w3.org/2000/svg">
<path d="M21.5107 16.9456C20.775 16.9461 20.0556 16.7285 19.4436 16.3204C18.8316 15.9122 18.3545 15.3318 18.0725 14.6526C17.7905 13.9734 17.7163 13.2259 17.8594 12.5045C18.0024 11.7832 18.3562 11.1204 18.8761 10.6001C19.396 10.0797 20.0586 9.72512 20.78 9.58117C21.5015 9.43722 22.2495 9.51037 22.9294 9.79133C23.6093 10.0723 24.1906 10.5484 24.5997 11.1596C25.0089 11.7708 25.2276 12.4895 25.2281 13.2249C25.2283 14.2109 24.8369 15.1566 24.1398 15.8543C23.4428 16.552 22.4971 16.9445 21.5107 16.9456ZM12.8376 16.9456C11.8521 16.9445 10.9072 16.5527 10.2104 15.8561C9.51349 15.1595 9.12148 14.2151 9.12035 13.23V4.56087C9.12152 3.57618 9.51368 2.6322 10.2107 1.93634C10.9077 1.24047 11.8526 0.849609 12.8377 0.849609C13.8228 0.849609 14.7677 1.24047 15.4647 1.93634C16.1617 2.6322 16.5538 3.57618 16.555 4.56087V13.23C16.5539 14.2151 16.1619 15.1596 15.465 15.8561C14.7681 16.5527 13.8232 16.9445 12.8376 16.9456ZM4.16711 16.9456C3.18088 16.9445 2.23539 16.5524 1.53802 15.8553C0.840655 15.1582 0.448377 14.2131 0.447266 13.2273V9.76371C0.447266 8.77757 0.839183 7.83184 1.5368 7.13454C2.23441 6.43724 3.18057 6.0455 4.16715 6.0455C5.15372 6.0455 6.09991 6.43724 6.79753 7.13454C7.49514 7.83184 7.88703 8.77757 7.88703 9.76371V13.2273C7.88591 14.2131 7.49365 15.1582 6.79627 15.8553C6.0989 16.5524 5.15336 16.9445 4.16711 16.9456Z" fill="#EC5757"/>
</svg>
