<svg width="40" height="40" viewBox="0 0 40 40" fill="none" xmlns="http://www.w3.org/2000/svg">
<rect width="40" height="40" rx="6" fill="#557ABA"/>
<g clip-path="url(#clip0_322_15597)">
<path d="M26.6914 15.6387L22.4883 11.4336C22.3711 11.3164 22.2109 11.25 22.0449 11.25H13.75C13.4043 11.25 13.125 11.5293 13.125 11.875V28.125C13.125 28.4707 13.4043 28.75 13.75 28.75H26.25C26.5957 28.75 26.875 28.4707 26.875 28.125V16.0801C26.875 15.9141 26.8086 15.7559 26.6914 15.6387ZM17.8125 17.8516C18.2441 17.8516 18.5938 18.2012 18.5938 18.6328C18.5938 19.0645 18.2441 19.4141 17.8125 19.4141C17.3809 19.4141 17.0312 19.0645 17.0312 18.6328C17.0312 18.2012 17.3809 17.8516 17.8125 17.8516ZM23.5938 23.5938H16.4062C16.2754 23.5938 16.2031 23.4434 16.2832 23.3418L18.2324 20.8574C18.262 20.8196 18.3074 20.7975 18.3555 20.7975C18.4035 20.7975 18.4489 20.8196 18.4785 20.8574L19.2812 21.8809L20.8008 19.9434C20.8304 19.9055 20.8758 19.8834 20.9238 19.8834C20.9719 19.8834 21.0173 19.9055 21.0469 19.9434L23.7129 23.3418C23.7969 23.4434 23.7227 23.5938 23.5938 23.5938ZM21.7578 16.3672V12.6914L25.4336 16.3672H21.7578Z" fill="#F3F4F6"/>
</g>
<defs>
<clipPath id="clip0_322_15597">
<rect width="20" height="20" fill="white" transform="translate(10 10)"/>
</clipPath>
</defs>
</svg>
