<svg width="19" height="19" viewBox="0 0 19 19" fill="none" xmlns="http://www.w3.org/2000/svg">
<path d="M6.6875 7.8125H3.3125C3.16332 7.8125 3.02024 7.75324 2.91475 7.64775C2.80926 7.54226 2.75 7.39918 2.75 7.25V3.875C2.75 3.72582 2.80926 3.58274 2.91475 3.47725C3.02024 3.37176 3.16332 3.3125 3.3125 3.3125C3.46168 3.3125 3.60476 3.37176 3.71025 3.47725C3.81574 3.58274 3.875 3.72582 3.875 3.875V5.55195C4.96273 4.325 6.87102 2.75 9.5 2.75C12.5108 2.75 14.322 4.5268 14.398 4.60203C14.5037 4.70739 14.5633 4.85044 14.5635 4.99971C14.5638 5.14898 14.5047 5.29223 14.3994 5.39797C14.294 5.5037 14.151 5.56325 14.0017 5.56352C13.8524 5.56378 13.7092 5.50474 13.6034 5.39938C13.5845 5.38039 12.0256 3.875 9.5 3.875C7.03906 3.875 5.26508 5.6082 4.39812 6.6875H6.6875C6.83668 6.6875 6.97976 6.74676 7.08525 6.85225C7.19074 6.95774 7.25 7.10082 7.25 7.25C7.25 7.39918 7.19074 7.54226 7.08525 7.64775C6.97976 7.75324 6.83668 7.8125 6.6875 7.8125ZM15.6875 11.1875H12.3125C12.1633 11.1875 12.0202 11.2468 11.9148 11.3523C11.8093 11.4577 11.75 11.6008 11.75 11.75C11.75 11.8992 11.8093 12.0423 11.9148 12.1477C12.0202 12.2532 12.1633 12.3125 12.3125 12.3125H14.6019C13.7349 13.3918 11.9609 15.125 9.5 15.125C6.97438 15.125 5.41555 13.6196 5.39656 13.6006C5.29083 13.4953 5.14757 13.4362 4.9983 13.4365C4.84904 13.4367 4.70599 13.4963 4.60062 13.602C4.49526 13.7078 4.43622 13.851 4.43648 14.0003C4.43675 14.1496 4.4963 14.2926 4.60203 14.398C4.67797 14.4732 6.48922 16.25 9.5 16.25C12.129 16.25 14.0373 14.675 15.125 13.448V15.125C15.125 15.2742 15.1843 15.4173 15.2898 15.5227C15.3952 15.6282 15.5383 15.6875 15.6875 15.6875C15.8367 15.6875 15.9798 15.6282 16.0852 15.5227C16.1907 15.4173 16.25 15.2742 16.25 15.125V11.75C16.25 11.6008 16.1907 11.4577 16.0852 11.3523C15.9798 11.2468 15.8367 11.1875 15.6875 11.1875Z" fill="#FF0000"/>
</svg>
