<svg width="49" height="49" viewBox="0 0 49 49" fill="none" xmlns="http://www.w3.org/2000/svg">
<circle cx="24.5" cy="24.5" r="24" fill="#EFF2FE"/>
<path d="M31.9998 22.7498H31.1665V21.9165C31.1665 21.6955 31.0787 21.4835 30.9224 21.3272C30.7661 21.171 30.5542 21.0832 30.3332 21.0832C30.1122 21.0832 29.9002 21.171 29.7439 21.3272C29.5876 21.4835 29.4998 21.6955 29.4998 21.9165V22.7498H28.6665C28.4455 22.7498 28.2335 22.8376 28.0772 22.9939C27.921 23.1502 27.8332 23.3622 27.8332 23.5832C27.8332 23.8042 27.921 24.0161 28.0772 24.1724C28.2335 24.3287 28.4455 24.4165 28.6665 24.4165H29.4998V25.2498C29.4998 25.4709 29.5876 25.6828 29.7439 25.8391C29.9002 25.9954 30.1122 26.0832 30.3332 26.0832C30.5542 26.0832 30.7661 25.9954 30.9224 25.8391C31.0787 25.6828 31.1665 25.4709 31.1665 25.2498V24.4165H31.9998C32.2209 24.4165 32.4328 24.3287 32.5891 24.1724C32.7454 24.0161 32.8332 23.8042 32.8332 23.5832C32.8332 23.3622 32.7454 23.1502 32.5891 22.9939C32.4328 22.8376 32.2209 22.7498 31.9998 22.7498ZM25.5832 24.1832C26.0278 23.7983 26.3845 23.3222 26.6289 22.7874C26.8733 22.2525 26.9998 21.6713 26.9998 21.0832C26.9998 19.9781 26.5609 18.9183 25.7794 18.1369C24.998 17.3555 23.9382 16.9165 22.8332 16.9165C21.7281 16.9165 20.6683 17.3555 19.8869 18.1369C19.1055 18.9183 18.6665 19.9781 18.6665 21.0832C18.6665 21.6713 18.793 22.2525 19.0374 22.7874C19.2819 23.3222 19.6385 23.7983 20.0832 24.1832C18.9166 24.7114 17.9269 25.5644 17.2323 26.6403C16.5377 27.7161 16.1677 28.9693 16.1665 30.2498C16.1665 30.4709 16.2543 30.6828 16.4106 30.8391C16.5669 30.9954 16.7788 31.0832 16.9998 31.0832C17.2209 31.0832 17.4328 30.9954 17.5891 30.8391C17.7454 30.6828 17.8332 30.4709 17.8332 30.2498C17.8332 28.9238 18.36 27.652 19.2976 26.7143C20.2353 25.7766 21.5071 25.2498 22.8332 25.2498C24.1593 25.2498 25.431 25.7766 26.3687 26.7143C27.3064 27.652 27.8332 28.9238 27.8332 30.2498C27.8332 30.4709 27.921 30.6828 28.0772 30.8391C28.2335 30.9954 28.4455 31.0832 28.6665 31.0832C28.8875 31.0832 29.0995 30.9954 29.2558 30.8391C29.412 30.6828 29.4998 30.4709 29.4998 30.2498C29.4986 28.9693 29.1286 27.7161 28.434 26.6403C27.7395 25.5644 26.7497 24.7114 25.5832 24.1832V24.1832ZM22.8332 23.5832C22.3387 23.5832 21.8554 23.4365 21.4442 23.1618C21.0331 22.8871 20.7127 22.4967 20.5235 22.0399C20.3343 21.5831 20.2847 21.0804 20.3812 20.5954C20.4777 20.1105 20.7158 19.665 21.0654 19.3154C21.415 18.9658 21.8605 18.7277 22.3454 18.6312C22.8304 18.5347 23.3331 18.5843 23.7899 18.7735C24.2467 18.9627 24.6371 19.2831 24.9118 19.6942C25.1865 20.1054 25.3332 20.5887 25.3332 21.0832C25.3332 21.7462 25.0698 22.3821 24.6009 22.8509C24.1321 23.3198 23.4962 23.5832 22.8332 23.5832Z" fill="#7B91F7"/>
</svg>
