<svg width="49" height="49" viewBox="0 0 49 49" fill="none" xmlns="http://www.w3.org/2000/svg">
<circle cx="24.5" cy="24.5" r="24" fill="#D1110B" fill-opacity="0.24"/>
<path d="M32.7665 19.5167C32.6819 19.313 32.5201 19.1512 32.3165 19.0667C32.2163 19.024 32.1087 19.0013 31.9998 19H27.8331C27.6121 19 27.4001 19.0878 27.2439 19.2441C27.0876 19.4004 26.9998 19.6123 26.9998 19.8333C26.9998 20.0543 27.0876 20.2663 27.2439 20.4226C27.4001 20.5789 27.6121 20.6667 27.8331 20.6667H29.9915L25.3331 25.325L22.5915 22.575C22.514 22.4969 22.4218 22.4349 22.3203 22.3926C22.2187 22.3503 22.1098 22.3285 21.9998 22.3285C21.8898 22.3285 21.7809 22.3503 21.6793 22.3926C21.5778 22.4349 21.4856 22.4969 21.4081 22.575L16.4081 27.575C16.33 27.6525 16.268 27.7446 16.2257 27.8462C16.1834 27.9477 16.1616 28.0567 16.1616 28.1667C16.1616 28.2767 16.1834 28.3856 16.2257 28.4871C16.268 28.5887 16.33 28.6809 16.4081 28.7583C16.4856 28.8364 16.5778 28.8984 16.6793 28.9407C16.7809 28.9831 16.8898 29.0048 16.9998 29.0048C17.1098 29.0048 17.2187 28.9831 17.3203 28.9407C17.4218 28.8984 17.514 28.8364 17.5915 28.7583L21.9998 24.3417L24.7415 27.0917C24.8189 27.1698 24.9111 27.2318 25.0126 27.2741C25.1142 27.3164 25.2231 27.3382 25.3331 27.3382C25.4431 27.3382 25.5521 27.3164 25.6536 27.2741C25.7552 27.2318 25.8473 27.1698 25.9248 27.0917L31.1665 21.8417V24C31.1665 24.221 31.2543 24.433 31.4105 24.5893C31.5668 24.7455 31.7788 24.8333 31.9998 24.8333C32.2208 24.8333 32.4328 24.7455 32.589 24.5893C32.7453 24.433 32.8331 24.221 32.8331 24V19.8333C32.8318 19.7244 32.8092 19.6169 32.7665 19.5167V19.5167Z" fill="#D1110B"/>
</svg>
