<svg width="497" height="317" viewBox="0 0 497 317" fill="none" xmlns="http://www.w3.org/2000/svg">
<g clip-path="url(#clip0_29_3967)">
<path d="M88.3967 314.242C93.1361 310.239 96.015 303.915 95.26 297.759C94.505 291.603 89.829 285.944 83.7635 284.637C77.6979 283.33 70.7837 286.948 68.9414 292.871C67.9275 281.452 66.7592 269.556 60.6858 259.832C55.1865 251.028 45.6616 244.728 35.3388 243.601C25.016 242.474 14.1473 246.73 7.70936 254.874C1.27139 263.018 -0.304934 274.858 4.20405 284.208C7.52567 291.096 13.6453 296.222 20.0571 300.392C40.7759 313.754 65.6254 319.188 90.0335 315.694L88.3967 314.242Z" fill="#F2F2F2"/>
<path d="M17.9177 246.966C26.4353 253.901 34.2493 261.656 41.2467 270.121C48.2452 278.577 54.4066 287.692 59.6444 297.337C62.5721 302.748 65.2022 308.314 67.5228 314.011C67.9959 315.17 66.1132 315.675 65.6453 314.529C61.5349 304.485 56.4497 294.868 50.4624 285.815C44.5042 276.795 37.6847 268.375 30.0997 260.671C25.8096 256.316 21.2832 252.2 16.541 248.342C15.5689 247.551 16.9537 246.181 17.9177 246.966Z" fill="white"/>
<path d="M371.224 0H114.555C113.576 0.00108482 112.639 0.389947 111.947 1.08128C111.255 1.77261 110.866 2.70994 110.865 3.68763V177.533C110.866 178.511 111.255 179.448 111.947 180.139C112.639 180.831 113.576 181.22 114.555 181.221H371.224C372.202 181.22 373.14 180.831 373.831 180.139C374.523 179.448 374.912 178.511 374.913 177.533V3.68763C374.912 2.70994 374.523 1.77261 373.831 1.08128C373.14 0.389947 372.202 0.00108482 371.224 0ZM373.859 177.533C373.859 178.232 373.581 178.901 373.087 179.395C372.593 179.889 371.922 180.167 371.224 180.167H114.555C113.856 180.167 113.186 179.889 112.691 179.395C112.197 178.901 111.92 178.232 111.919 177.533V3.68763C111.92 2.98913 112.197 2.31932 112.691 1.82541C113.186 1.33149 113.856 1.05389 114.555 1.05361H371.224C371.922 1.05389 372.593 1.33149 373.087 1.82541C373.581 2.31932 373.859 2.98913 373.859 3.68763V177.533Z" fill="#563D3D"/>
<path d="M374.386 14.7715H111.393V15.8251H374.386V14.7715Z" fill="#563D3D"/>
<path d="M120.352 11.0629C122.098 11.0629 123.514 9.64771 123.514 7.90204C123.514 6.15636 122.098 4.74121 120.352 4.74121C118.605 4.74121 117.189 6.15636 117.189 7.90204C117.189 9.64771 118.605 11.0629 120.352 11.0629Z" fill="#563D3D"/>
<path d="M129.443 11.0629C131.19 11.0629 132.606 9.64771 132.606 7.90204C132.606 6.15636 131.19 4.74121 129.443 4.74121C127.697 4.74121 126.281 6.15636 126.281 7.90204C126.281 9.64771 127.697 11.0629 129.443 11.0629Z" fill="#563D3D"/>
<path d="M138.535 11.0629C140.282 11.0629 141.698 9.64771 141.698 7.90204C141.698 6.15636 140.282 4.74121 138.535 4.74121C136.789 4.74121 135.373 6.15636 135.373 7.90204C135.373 9.64771 136.789 11.0629 138.535 11.0629Z" fill="#563D3D"/>
<path d="M265.025 39.2473H220.754C219.775 39.2473 218.837 38.8588 218.145 38.1673C217.453 37.4757 217.064 36.5377 217.064 35.5597C217.064 34.5817 217.453 33.6437 218.145 32.9521C218.837 32.2606 219.775 31.8721 220.754 31.8721H265.025C266.004 31.8721 266.942 32.2606 267.634 32.9521C268.326 33.6437 268.715 34.5817 268.715 35.5597C268.715 36.5377 268.326 37.4757 267.634 38.1673C266.942 38.8588 266.004 39.2473 265.025 39.2473Z" fill="#CCCCCC"/>
<path d="M295.33 57.1585H190.449C189.471 57.1585 188.532 56.7699 187.84 56.0784C187.148 55.3868 186.76 54.4489 186.76 53.4708C186.76 52.4928 187.148 51.5548 187.84 50.8633C188.532 50.1717 189.471 49.7832 190.449 49.7832H295.33C296.309 49.7832 297.247 50.1717 297.939 50.8633C298.631 51.5548 299.02 52.4928 299.02 53.4708C299.02 54.4489 298.631 55.3868 297.939 56.0784C297.247 56.7699 296.309 57.1585 295.33 57.1585Z" fill="#CCCCCC"/>
<path d="M326.784 167.234C322.808 167.234 318.922 166.056 315.617 163.848C312.311 161.641 309.735 158.503 308.214 154.832C306.692 151.16 306.294 147.121 307.07 143.223C307.845 139.326 309.76 135.746 312.571 132.936C315.382 130.127 318.963 128.213 322.862 127.438C326.762 126.663 330.803 127.06 334.476 128.581C338.149 130.102 341.288 132.677 343.497 135.981C345.705 139.285 346.884 143.169 346.884 147.143C346.878 152.47 344.758 157.576 340.99 161.343C337.222 165.11 332.113 167.228 326.784 167.234ZM326.784 128.437C323.083 128.437 319.464 129.534 316.387 131.59C313.309 133.645 310.911 136.567 309.494 139.985C308.078 143.403 307.707 147.164 308.429 150.792C309.151 154.421 310.934 157.754 313.551 160.37C316.168 162.986 319.503 164.767 323.133 165.489C326.763 166.211 330.526 165.841 333.945 164.425C337.365 163.009 340.288 160.611 342.344 157.535C344.4 154.459 345.498 150.843 345.498 147.143C345.492 142.184 343.519 137.429 340.01 133.922C336.502 130.416 331.745 128.443 326.784 128.437Z" fill="#563D3D"/>
<path d="M158.27 113.426C154.295 113.426 150.409 112.247 147.103 110.04C143.798 107.832 141.221 104.694 139.7 101.023C138.179 97.3518 137.781 93.3121 138.556 89.4148C139.332 85.5175 141.246 81.9376 144.057 79.1278C146.868 76.3179 150.45 74.4044 154.349 73.6292C158.248 72.854 162.289 73.2519 165.962 74.7725C169.635 76.2932 172.774 78.8683 174.983 82.1723C177.192 85.4763 178.37 89.3607 178.37 93.3344C178.364 98.6611 176.245 103.768 172.477 107.534C168.708 111.301 163.599 113.42 158.27 113.426ZM158.27 74.6288C154.569 74.6288 150.951 75.7258 147.873 77.7812C144.796 79.8366 142.397 82.7581 140.981 86.1761C139.564 89.5941 139.194 93.3551 139.916 96.9837C140.638 100.612 142.42 103.945 145.037 106.561C147.655 109.177 150.989 110.959 154.619 111.681C158.249 112.402 162.012 112.032 165.432 110.616C168.851 109.2 171.774 106.803 173.83 103.727C175.887 100.651 176.984 97.034 176.984 93.3344C176.979 88.3751 175.005 83.6205 171.497 80.1137C167.988 76.607 163.232 74.6344 158.27 74.6288Z" fill="#563D3D"/>
<path d="M166.078 103.985C165.552 103.985 165.047 103.776 164.674 103.404C164.302 103.033 164.092 102.528 164.091 102.002V90.7296C164.092 90.2041 164.301 89.7003 164.673 89.3287C165.045 88.9571 165.549 88.748 166.074 88.7474H166.078C166.604 88.748 167.108 88.9571 167.479 89.3287C167.851 89.7003 168.06 90.2041 168.061 90.7296V102.002C168.06 102.528 167.851 103.032 167.479 103.403C167.108 103.775 166.604 103.984 166.078 103.985ZM160.9 103.985C160.638 103.987 160.377 103.938 160.134 103.84C159.89 103.741 159.669 103.596 159.482 103.412C159.295 103.227 159.146 103.008 159.045 102.766C158.943 102.524 158.89 102.265 158.889 102.002V95.93C158.889 95.4046 159.098 94.9007 159.47 94.5292C159.842 94.1576 160.346 93.9486 160.872 93.9481H160.9C161.426 93.9486 161.93 94.1576 162.302 94.5292C162.673 94.9007 162.883 95.4046 162.883 95.93V102.002C162.883 102.528 162.673 103.032 162.302 103.403C161.93 103.775 161.426 103.984 160.9 103.985ZM155.672 103.985C155.146 103.985 154.641 103.776 154.269 103.404C153.896 103.033 153.687 102.528 153.686 102.002V84.6658C153.686 84.1403 153.896 83.6365 154.267 83.2649C154.639 82.8932 155.143 82.6842 155.669 82.6836H155.672C156.198 82.6842 156.702 82.8932 157.074 83.2649C157.446 83.6365 157.655 84.1403 157.655 84.6658V102.002C157.655 102.528 157.446 103.032 157.074 103.403C156.702 103.775 156.198 103.984 155.672 103.985ZM150.465 103.985C150.204 103.985 149.946 103.934 149.705 103.834C149.464 103.735 149.245 103.588 149.06 103.404C148.876 103.22 148.73 103.001 148.63 102.76C148.53 102.52 148.479 102.262 148.479 102.001L148.482 99.3971C148.482 98.8714 148.691 98.3674 149.063 97.9958C149.435 97.6243 149.94 97.4157 150.465 97.4159C150.991 97.4161 151.496 97.6252 151.867 97.997C152.239 98.3689 152.448 98.8731 152.448 99.3988V102.002C152.447 102.528 152.238 103.032 151.866 103.403C151.494 103.775 150.99 103.984 150.465 103.985Z" fill="#EC5757"/>
<path d="M463.186 315.718C459.211 315.718 455.325 314.539 452.019 312.332C448.714 310.124 446.137 306.986 444.616 303.315C443.095 299.644 442.697 295.604 443.472 291.707C444.248 287.809 446.162 284.23 448.973 281.42C451.784 278.61 455.366 276.696 459.265 275.921C463.164 275.146 467.205 275.544 470.878 277.065C474.551 278.585 477.69 281.16 479.899 284.464C482.108 287.768 483.286 291.653 483.286 295.626C483.28 300.953 481.161 306.06 477.393 309.826C473.624 313.593 468.515 315.712 463.186 315.718ZM463.186 276.921C459.485 276.921 455.867 278.018 452.789 280.073C449.712 282.129 447.313 285.05 445.897 288.468C444.48 291.886 444.11 295.647 444.832 299.276C445.554 302.904 447.336 306.237 449.953 308.853C452.571 311.469 455.905 313.251 459.535 313.973C463.165 314.694 466.928 314.324 470.348 312.908C473.767 311.492 476.69 309.095 478.746 306.019C480.803 302.943 481.9 299.326 481.9 295.626C481.895 290.667 479.921 285.912 476.413 282.406C472.904 278.899 468.148 276.926 463.186 276.921Z" fill="#563D3D"/>
<path d="M468.727 292.14L464.808 298.13C465.123 298.512 465.294 298.991 465.292 299.486C465.291 300.057 465.064 300.604 464.66 301.008C464.255 301.411 463.707 301.638 463.136 301.638C462.565 301.638 462.017 301.411 461.613 301.008C461.209 300.604 460.981 300.057 460.98 299.486C460.981 299.348 460.994 299.209 461.018 299.073L458.431 297.567C458.097 297.89 457.668 298.096 457.206 298.154C456.745 298.213 456.278 298.12 455.874 297.89L453.122 300.467V303.035C453.123 303.543 453.325 304.03 453.684 304.39C454.043 304.749 454.53 304.952 455.038 304.954H471.33C471.838 304.952 472.325 304.749 472.685 304.39C473.045 304.03 473.248 303.543 473.25 303.035V293.509L470.618 291.76C470.354 291.965 470.045 292.106 469.717 292.172C469.389 292.238 469.05 292.227 468.727 292.14Z" fill="#EC5757"/>
<path d="M456.937 293.877C457.509 293.877 458.058 294.104 458.462 294.509C458.866 294.913 459.093 295.461 459.093 296.032V296.31L461.791 297.819C462.176 297.504 462.659 297.331 463.157 297.331C463.314 297.332 463.471 297.349 463.625 297.381L467.552 291.305C467.356 291.029 467.227 290.711 467.177 290.377C467.127 290.043 467.157 289.701 467.264 289.38C467.371 289.06 467.552 288.769 467.793 288.531C468.034 288.294 468.328 288.117 468.65 288.014C468.972 287.911 469.314 287.886 469.648 287.941C469.982 287.995 470.298 288.128 470.571 288.328C470.844 288.527 471.066 288.789 471.218 289.091C471.371 289.392 471.45 289.726 471.45 290.064C471.45 290.235 471.43 290.406 471.392 290.573L473.25 291.813V288.219C473.248 287.711 473.045 287.224 472.685 286.864C472.325 286.505 471.838 286.302 471.33 286.3H455.038C454.53 286.302 454.043 286.505 453.684 286.865C453.325 287.224 453.123 287.711 453.122 288.219V298.514L454.918 296.793C454.798 296.468 454.758 296.119 454.802 295.775C454.847 295.431 454.973 295.103 455.172 294.819C455.37 294.535 455.634 294.302 455.942 294.142C456.249 293.982 456.591 293.898 456.937 293.898V293.877Z" fill="#EC5757"/>
<path d="M243.686 113.426C239.711 113.426 235.825 112.247 232.519 110.04C229.214 107.832 226.637 104.694 225.116 101.023C223.595 97.3518 223.197 93.3121 223.972 89.4148C224.748 85.5175 226.662 81.9376 229.473 79.1278C232.284 76.3179 235.866 74.4044 239.765 73.6292C243.664 72.854 247.705 73.2519 251.378 74.7725C255.051 76.2932 258.19 78.8683 260.399 82.1723C262.608 85.4763 263.786 89.3607 263.786 93.3344C263.78 98.6611 261.661 103.768 257.893 107.534C254.124 111.301 249.015 113.42 243.686 113.426ZM243.686 74.6288C239.985 74.6288 236.367 75.7258 233.289 77.7812C230.212 79.8366 227.813 82.7581 226.397 86.1761C224.98 89.5941 224.61 93.3551 225.332 96.9837C226.054 100.612 227.836 103.945 230.453 106.561C233.071 109.177 236.405 110.959 240.035 111.681C243.665 112.402 247.428 112.032 250.848 110.616C254.267 109.2 257.19 106.803 259.246 103.727C261.303 100.651 262.4 97.034 262.4 93.3344C262.395 88.3751 260.421 83.6205 256.913 80.1137C253.404 76.607 248.648 74.6344 243.686 74.6288Z" fill="#563D3D"/>
<path d="M233.007 100.617C232.718 100.617 232.436 100.531 232.196 100.371C231.956 100.21 231.768 99.9823 231.658 99.7156C231.547 99.4489 231.518 99.1554 231.574 98.8721C231.63 98.5889 231.768 98.3286 231.972 98.1241L239.399 90.6797C239.515 90.5632 239.652 90.4709 239.804 90.4079C239.956 90.345 240.118 90.3128 240.282 90.3132H240.283C240.447 90.3128 240.61 90.3448 240.761 90.4075C240.913 90.4702 241.05 90.5623 241.166 90.6785L244.61 94.1214C244.68 94.1912 244.762 94.2465 244.853 94.2842C244.944 94.3218 245.041 94.3411 245.14 94.3408C245.238 94.341 245.336 94.3218 245.427 94.2841C245.518 94.2464 245.6 94.191 245.67 94.1212L250.533 89.2522C250.556 89.229 250.574 89.2015 250.587 89.1712C250.599 89.1409 250.606 89.1085 250.606 89.0757C250.606 89.0429 250.599 89.0105 250.587 88.9802C250.574 88.9499 250.556 88.9224 250.532 88.8993L248.959 87.3292C248.854 87.2246 248.783 87.0912 248.754 86.9459C248.725 86.8007 248.739 86.6501 248.796 86.5132C248.853 86.3763 248.949 86.2593 249.072 86.177C249.195 86.0947 249.34 86.0508 249.488 86.0508H255.077C255.275 86.051 255.466 86.1299 255.606 86.2703C255.746 86.4106 255.825 86.6009 255.826 86.7994V92.3819C255.826 92.53 255.782 92.6748 255.7 92.7979C255.617 92.9211 255.5 93.0171 255.363 93.0737C255.227 93.1304 255.076 93.1453 254.931 93.1164C254.785 93.0875 254.652 93.0162 254.547 92.9115L252.971 91.3363C252.948 91.3131 252.921 91.2947 252.89 91.2822C252.86 91.2696 252.828 91.2632 252.795 91.2632C252.762 91.2632 252.73 91.2696 252.699 91.2822C252.669 91.2947 252.641 91.3131 252.618 91.3363L246.033 97.9141C245.917 98.0302 245.78 98.1224 245.628 98.1851C245.477 98.2478 245.315 98.2798 245.151 98.2793C244.987 98.2798 244.824 98.2477 244.673 98.1849C244.521 98.1222 244.384 98.03 244.268 97.9138L240.822 94.4692C240.679 94.3331 240.489 94.2572 240.292 94.2572C240.095 94.2572 239.905 94.3331 239.763 94.4692L234.041 100.188C233.905 100.325 233.744 100.433 233.567 100.506C233.389 100.58 233.199 100.617 233.007 100.617Z" fill="#EC5757"/>
<path d="M243.686 166.105C239.711 166.105 235.825 164.927 232.519 162.719C229.214 160.512 226.637 157.374 225.116 153.703C223.595 150.031 223.197 145.992 223.972 142.094C224.748 138.197 226.662 134.617 229.473 131.807C232.284 128.998 235.866 127.084 239.765 126.309C243.664 125.534 247.705 125.932 251.378 127.452C255.051 128.973 258.19 131.548 260.399 134.852C262.608 138.156 263.786 142.04 263.786 146.014C263.78 151.341 261.661 156.448 257.893 160.214C254.124 163.981 249.015 166.099 243.686 166.105Z" fill="#E6E6E6"/>
<path d="M326.959 111.845C322.983 111.845 319.097 110.666 315.792 108.459C312.486 106.251 309.91 103.113 308.388 99.4419C306.867 95.7707 306.469 91.7311 307.245 87.8337C308.02 83.9364 309.935 80.3565 312.746 77.5467C315.557 74.7369 319.138 72.8234 323.037 72.0482C326.936 71.2729 330.978 71.6708 334.651 73.1915C338.324 74.7121 341.463 77.2873 343.671 80.5913C345.88 83.8952 347.059 87.7797 347.059 91.7533C347.053 97.08 344.933 102.187 341.165 105.953C337.397 109.72 332.288 111.839 326.959 111.845Z" fill="#E6E6E6"/>
<path d="M158.27 125.923C154.82 125.927 151.429 126.816 148.42 128.504C152.768 128.888 156.845 130.779 159.946 133.85C163.047 136.92 164.977 140.977 165.402 145.319C165.827 149.662 164.721 154.016 162.274 157.629C159.828 161.242 156.195 163.887 152.004 165.107C152.789 165.367 153.59 165.576 154.402 165.733C155.676 165.984 156.972 166.109 158.27 166.107C163.602 166.107 168.714 163.991 172.484 160.223C176.254 156.455 178.372 151.344 178.372 146.015C178.372 140.686 176.254 135.576 172.484 131.808C168.714 128.04 163.602 125.923 158.27 125.923Z" fill="#E6E6E6"/>
<path d="M150.645 127.429C149.371 127.174 148.075 127.047 146.776 127.05C141.608 127.045 136.635 129.027 132.89 132.587C129.144 136.146 126.913 141.01 126.657 146.17C126.402 151.33 128.143 156.39 131.519 160.301C134.895 164.213 139.647 166.676 144.791 167.18C149.934 167.685 155.075 166.191 159.147 163.01C163.219 159.829 165.91 155.203 166.663 150.092C167.416 144.981 166.172 139.777 163.19 135.557C160.208 131.338 155.716 128.428 150.645 127.429ZM152.004 165.106C149.43 165.855 146.725 166.042 144.073 165.654C141.42 165.267 138.881 164.315 136.629 162.862C134.376 161.409 132.462 159.489 131.016 157.233C129.57 154.976 128.626 152.435 128.248 149.782C127.87 147.13 128.066 144.426 128.824 141.856C129.582 139.286 130.883 136.908 132.64 134.884C134.396 132.86 136.568 131.236 139.007 130.124C141.446 129.011 144.095 128.435 146.776 128.435C147.33 128.435 147.878 128.462 148.42 128.504C152.768 128.888 156.845 130.779 159.946 133.849C163.047 136.92 164.977 140.977 165.402 145.319C165.828 149.661 164.721 154.015 162.275 157.629C159.828 161.242 156.195 163.887 152.004 165.106Z" fill="#563D3D"/>
<path d="M158.479 143.606C157.815 140.696 156.022 138.167 153.495 136.577C150.967 134.986 147.911 134.463 144.998 135.122C144.713 135.187 144.419 135.267 144.159 135.347L146.845 147.145L158.649 144.465C158.599 144.19 158.544 143.891 158.479 143.606Z" fill="#EC5757"/>
<path d="M157.336 146.535L145.527 149.215L142.846 137.417C140.787 138.054 138.954 139.267 137.564 140.914C136.174 142.56 135.286 144.57 135.004 146.706C134.722 148.842 135.059 151.013 135.975 152.963C136.89 154.914 138.346 156.56 140.17 157.709C141.993 158.857 144.108 159.459 146.263 159.442C148.418 159.426 150.523 158.792 152.329 157.616C154.134 156.44 155.565 154.771 156.451 152.807C157.336 150.843 157.64 148.666 157.326 146.535H157.336Z" fill="#EC5757"/>
<path d="M364.838 240.987C360.862 240.987 356.976 239.809 353.67 237.601C350.365 235.393 347.789 232.256 346.267 228.585C344.746 224.913 344.348 220.874 345.124 216.976C345.899 213.079 347.813 209.499 350.625 206.689C353.436 203.879 357.017 201.966 360.916 201.191C364.815 200.416 368.857 200.813 372.53 202.334C376.202 203.855 379.342 206.43 381.55 209.734C383.759 213.038 384.938 216.922 384.938 220.896C384.932 226.223 382.812 231.329 379.044 235.096C375.276 238.862 370.167 240.981 364.838 240.987ZM364.838 202.19C361.136 202.19 357.518 203.287 354.441 205.343C351.363 207.398 348.964 210.32 347.548 213.738C346.132 217.156 345.761 220.917 346.483 224.545C347.205 228.174 348.988 231.507 351.605 234.123C354.222 236.739 357.556 238.52 361.187 239.242C364.817 239.964 368.58 239.593 371.999 238.178C375.419 236.762 378.341 234.364 380.398 231.288C382.454 228.212 383.552 224.596 383.552 220.896C383.546 215.937 381.573 211.182 378.064 207.675C374.556 204.168 369.799 202.196 364.838 202.19Z" fill="#563D3D"/>
<path d="M373.511 228.946C372.775 228.946 372.056 228.729 371.444 228.32C370.832 227.912 370.354 227.332 370.072 226.653C369.79 225.973 369.716 225.226 369.859 224.505C370.002 223.783 370.356 223.12 370.876 222.6C371.396 222.08 372.059 221.725 372.78 221.581C373.502 221.437 374.25 221.51 374.929 221.791C375.609 222.072 376.191 222.548 376.6 223.16C377.009 223.771 377.228 224.49 377.228 225.225C377.228 226.211 376.837 227.157 376.14 227.854C375.443 228.552 374.497 228.945 373.511 228.946ZM364.838 228.946C363.852 228.944 362.907 228.553 362.21 227.856C361.513 227.16 361.121 226.215 361.12 225.23V216.561C361.122 215.576 361.514 214.632 362.211 213.936C362.908 213.24 363.853 212.85 364.838 212.85C365.823 212.85 366.768 213.24 367.465 213.936C368.162 214.632 368.554 215.576 368.555 216.561V225.23C368.554 226.215 368.162 227.16 367.465 227.856C366.768 228.553 365.823 228.945 364.838 228.946ZM356.167 228.946C355.181 228.944 354.235 228.552 353.538 227.855C352.841 227.158 352.448 226.213 352.447 225.227V221.764C352.447 220.778 352.839 219.832 353.537 219.135C354.234 218.437 355.181 218.045 356.167 218.045C357.154 218.045 358.1 218.437 358.798 219.135C359.495 219.832 359.887 220.778 359.887 221.764V225.227C359.886 226.213 359.494 227.158 358.796 227.855C358.099 228.552 357.153 228.945 356.167 228.946Z" fill="#EC5757"/>
<path d="M109.957 311.034L116.084 310.339L116.318 286.388L107.275 287.413L109.957 311.034Z" fill="#A0616A"/>
<path d="M128.545 314.686L109.29 316.87L108.446 309.434L120.261 308.093C122.234 307.87 124.216 308.438 125.769 309.675C127.322 310.911 128.321 312.713 128.545 314.686Z" fill="#412E2E"/>
<path d="M46.9493 310.651L53.1152 310.651L56.0481 286.879L46.9482 286.879L46.9493 310.651Z" fill="#A0616A"/>
<path d="M65.0068 316.374L45.6283 316.375L45.628 308.891L57.5193 308.891C59.5051 308.89 61.4095 309.679 62.8137 311.082C64.2178 312.486 65.0067 314.389 65.0068 316.374Z" fill="#412E2E"/>
<path d="M91.1881 204.344L94.7086 215.79L113.82 257.129L118.85 296.34L107.282 296.843L100.241 260.648L76.1 234.507L54.9767 302.875L45.4209 301.87C45.4209 301.87 53.4679 213.393 64.5325 204.344C64.5325 204.344 82.6381 195.798 91.1881 204.344Z" fill="#412E2E"/>
<path d="M75.5714 154.956C82.3935 154.956 87.924 149.428 87.924 142.609C87.924 135.79 82.3935 130.262 75.5714 130.262C68.7492 130.262 63.2188 135.79 63.2188 142.609C63.2188 149.428 68.7492 154.956 75.5714 154.956Z" fill="#A0616A"/>
<path d="M92.4453 206.606C92.4453 206.606 93.9541 155.33 72.8308 158.849C51.7075 162.368 60.5089 211.885 60.5089 211.885C60.5089 211.885 65.0353 220.934 76.0999 210.879C87.1645 200.825 92.4453 206.606 92.4453 206.606Z" fill="#EC5757"/>
<path d="M136.176 163.927C135.779 164.551 135.251 165.08 134.627 165.477C134.004 165.875 133.301 166.131 132.568 166.228C131.835 166.324 131.09 166.259 130.385 166.036C129.68 165.814 129.032 165.44 128.487 164.94L112.665 173.46L113.493 164.162L128.391 157.496C129.292 156.637 130.477 156.138 131.721 156.094C132.965 156.05 134.182 156.463 135.141 157.256C136.101 158.048 136.736 159.165 136.927 160.395C137.117 161.624 136.85 162.881 136.176 163.927Z" fill="#A0616A"/>
<path d="M75.4528 165.11L101.136 169.449L124.152 158.589L127.646 166.058L102.451 182.099C102.451 182.099 75.7758 183.909 69.6086 176.878C67.2959 174.241 67.0315 171.841 67.6045 169.871C68.1063 168.257 69.1812 166.882 70.6268 166.005C72.0723 165.128 73.7887 164.81 75.4528 165.11Z" fill="#EC5757"/>
<path d="M74.1024 155.582C74.1614 155.529 74.2073 155.463 74.2363 155.389C74.2654 155.316 74.2769 155.236 74.2699 155.157C74.2629 155.078 74.2376 155.002 74.1961 154.935C74.1545 154.867 74.0978 154.811 74.0304 154.769C72.9335 154.09 72.0397 153.128 71.4431 151.985C70.8465 150.841 70.569 149.558 70.6399 148.27C70.7107 146.983 71.1271 145.738 71.8455 144.667C72.5639 143.595 73.5577 142.737 74.7225 142.182C78.3542 140.452 83.2754 141.798 85.9601 138.472C86.5061 137.761 86.8922 136.94 87.0921 136.066C87.2919 135.191 87.3008 134.284 87.1182 133.406C86.5389 130.265 84.1763 127.932 81.5305 126.333C78.2802 124.369 74.5446 123.355 70.7469 123.404C66.9492 123.453 63.2413 124.565 60.0433 126.613C56.8452 128.661 54.2849 131.563 52.6524 134.99C51.0199 138.418 50.3804 142.234 50.8066 146.007C51.1481 149.03 52.0814 152.42 50.2829 154.875C48.7 157.035 45.7121 157.44 43.0875 157.977C37.4581 159.128 32.0271 161.785 28.2069 166.075C24.3866 170.365 22.3486 176.385 23.5004 182.011C24.6523 187.638 29.2732 192.583 34.9526 193.456C39.5754 194.166 44.3488 192.203 47.7435 188.987C51.1383 185.772 53.2841 181.429 54.6375 176.954C56.244 171.643 56.8777 165.919 59.778 161.188C62.6161 156.558 68.7322 153.24 73.5257 155.651C73.6176 155.699 73.7218 155.718 73.8247 155.705C73.9277 155.693 74.0244 155.65 74.1024 155.582Z" fill="#412E2E"/>
<path d="M432.073 246.974C432.741 246.642 433.329 246.167 433.794 245.583C434.259 244.999 434.59 244.32 434.764 243.594C434.938 242.868 434.951 242.113 434.802 241.382C434.652 240.651 434.344 239.961 433.899 239.362L445.801 173.524L434.695 173.378L426.43 238.483C425.472 239.297 424.846 240.433 424.67 241.677C424.495 242.922 424.782 244.187 425.478 245.234C426.173 246.28 427.229 247.036 428.445 247.356C429.66 247.677 430.951 247.541 432.073 246.974Z" fill="#FFB8B8"/>
<path d="M397.603 243.853L393.387 263.871L393.914 308.649H401.819L405.509 264.925L411.306 246.487L397.603 243.853Z" fill="#FFB8B8"/>
<path d="M423.731 245.354L419.515 265.373L420.042 310.151H427.947L431.637 266.427L437.434 247.989L423.731 245.354Z" fill="#FFB8B8"/>
<path d="M391.153 308.14L403.614 308.109L403.634 315.952L383.326 316.003C383.324 314.973 383.524 313.952 383.916 313C384.308 312.047 384.884 311.181 385.61 310.451C386.337 309.721 387.201 309.141 388.152 308.745C389.102 308.348 390.122 308.143 391.153 308.14Z" fill="#412E2E"/>
<path d="M417.475 308.987L429.936 308.956L429.956 316.798L409.649 316.849C409.646 315.819 409.846 314.799 410.238 313.847C410.63 312.894 411.206 312.028 411.933 311.298C412.659 310.568 413.523 309.988 414.474 309.592C415.425 309.195 416.445 308.99 417.475 308.987Z" fill="#412E2E"/>
<path d="M416.84 145.679C423.989 145.679 429.785 139.887 429.785 132.741C429.785 125.595 423.989 119.802 416.84 119.802C409.691 119.802 403.896 125.595 403.896 132.741C403.896 139.887 409.691 145.679 416.84 145.679Z" fill="#FFB8B8"/>
<path d="M445.447 164.743C441.509 158.566 429.143 143.917 410.743 152.326C409.293 152.996 408.083 154.094 407.276 155.471C406.469 156.849 406.103 158.441 406.228 160.033C407.118 171.78 408.241 201.71 398.657 219.62C398.657 219.62 426.59 228.049 441.875 220.147C441.875 220.147 436.604 184.851 441.875 178.002C443.632 175.814 445.055 173.377 446.098 170.771C446.464 169.785 446.596 168.727 446.483 167.681C446.37 166.635 446.015 165.629 445.447 164.743Z" fill="#563D3D"/>
<path d="M440.293 164.306L445.465 166.46C445.81 166.603 446.106 166.842 446.319 167.148C446.533 167.454 446.654 167.814 446.67 168.186L447.145 179.583L435.55 178.529L440.293 164.306Z" fill="#563D3D"/>
<path d="M400.765 218.566C400.765 218.566 389.17 240.165 391.279 260.184L407.617 262.818L419.212 234.897L416.577 263.345L433.442 263.872C433.442 263.872 444.51 222.781 440.821 219.093L400.765 218.566Z" fill="#412E2E"/>
<path d="M384.298 220.494C385.036 220.381 385.74 220.108 386.361 219.693C386.982 219.279 387.505 218.733 387.892 218.095C388.28 217.457 388.522 216.742 388.603 216C388.684 215.258 388.601 214.507 388.36 213.801L411.882 169.481L401.349 165.955L381.515 210.686C380.354 211.169 379.411 212.061 378.865 213.192C378.318 214.324 378.205 215.617 378.548 216.825C378.891 218.034 379.666 219.075 380.726 219.751C381.786 220.428 383.056 220.692 384.298 220.494Z" fill="#FFB8B8"/>
<path d="M415.093 157.484L410.736 155.536C410.736 155.536 407.042 153.247 403.768 158.283C400.494 163.32 396.957 174.357 396.957 174.357L411.172 178.355L415.093 157.484Z" fill="#563D3D"/>
<path d="M418.913 138.97C419.378 137.357 419.244 135.174 417.679 134.564C416.864 134.246 415.955 134.497 415.084 134.586C413.381 134.753 411.676 134.284 410.298 133.269C408.68 132.067 407.681 130.229 406.731 128.451L405.296 125.761C404.976 125.2 404.704 124.614 404.481 124.008C403.682 121.634 404.55 118.885 406.325 117.117C408.181 115.391 410.623 114.434 413.157 114.439C415.672 114.458 418.156 114.989 420.457 116.003C424.548 117.669 428.253 120.157 431.343 123.312C433.362 125.377 435.201 128.068 434.779 130.924C434.45 133.148 432.829 134.929 431.282 136.561L425.672 142.481C424.678 143.529 423.616 144.62 422.229 145.023C420.842 145.426 419.055 144.834 418.676 143.44C418.676 143.44 418.449 140.583 418.913 138.97Z" fill="#412E2E"/>
<path d="M496.473 317H0.527041C0.387261 317 0.253206 316.944 0.154366 316.846C0.055527 316.747 0 316.613 0 316.473C0 316.333 0.055527 316.199 0.154366 316.101C0.253206 316.002 0.387261 315.946 0.527041 315.946H496.473C496.613 315.946 496.747 316.002 496.846 316.101C496.945 316.199 497 316.333 497 316.473C497 316.613 496.945 316.747 496.846 316.846C496.747 316.944 496.613 317 496.473 317Z" fill="#563D3D"/>
<path d="M334.163 155.572H319.405C318.986 155.572 318.584 155.405 318.287 155.109C317.991 154.813 317.824 154.411 317.824 153.992C317.824 153.572 317.991 153.17 318.287 152.874C318.584 152.578 318.986 152.411 319.405 152.411H334.163C334.582 152.411 334.984 152.578 335.281 152.874C335.577 153.17 335.744 153.572 335.744 153.992C335.744 154.411 335.577 154.813 335.281 155.109C334.984 155.405 334.582 155.572 334.163 155.572Z" fill="#EC5757"/>
<path d="M334.163 148.723H319.405C318.986 148.723 318.584 148.557 318.287 148.26C317.991 147.964 317.824 147.562 317.824 147.143C317.824 146.724 317.991 146.322 318.287 146.025C318.584 145.729 318.986 145.562 319.405 145.562H334.163C334.582 145.562 334.984 145.729 335.281 146.025C335.577 146.322 335.744 146.724 335.744 147.143C335.744 147.562 335.577 147.964 335.281 148.26C334.984 148.557 334.582 148.723 334.163 148.723Z" fill="#EC5757"/>
<path d="M334.163 141.876H319.405C318.986 141.876 318.584 141.709 318.287 141.413C317.991 141.116 317.824 140.714 317.824 140.295C317.824 139.876 317.991 139.474 318.287 139.178C318.584 138.881 318.986 138.715 319.405 138.715H334.163C334.582 138.715 334.984 138.881 335.281 139.178C335.577 139.474 335.744 139.876 335.744 140.295C335.744 140.714 335.577 141.116 335.281 141.413C334.984 141.709 334.582 141.876 334.163 141.876Z" fill="#EC5757"/>
</g>
<defs>
<clipPath id="clip0_29_3967">
<rect width="497" height="317" fill="white"/>
</clipPath>
</defs>
</svg>
