<svg width="19" height="19" viewBox="0 0 19 19" fill="none" xmlns="http://www.w3.org/2000/svg">
<path d="M7.79632 13.574C7.7689 13.683 7.08335 16.2501 3.31249 16.2501C3.16331 16.2501 3.02023 16.1908 2.91475 16.0853C2.80926 15.9799 2.74999 15.8368 2.74999 15.6876C2.74999 11.9167 5.3171 11.2312 5.42609 11.2038C5.57089 11.1676 5.72413 11.1904 5.8521 11.2672C5.98007 11.344 6.07229 11.4685 6.10847 11.6133C6.14465 11.7581 6.12182 11.9114 6.04501 12.0394C5.9682 12.1673 5.8437 12.2595 5.6989 12.2957C5.63562 12.3133 4.12249 12.7556 3.90171 15.0984C6.24452 14.8776 6.68749 13.3673 6.70577 13.297C6.74307 13.1524 6.83629 13.0285 6.96492 12.9526C7.09355 12.8767 7.24706 12.855 7.39167 12.8923C7.53629 12.9296 7.66016 13.0228 7.73605 13.1515C7.81194 13.2801 7.83362 13.4336 7.79632 13.5782V13.574ZM14.3354 8.83494L14 9.17033V13.2717C14.0008 13.42 13.9722 13.567 13.9157 13.7041C13.8592 13.8412 13.776 13.9657 13.6709 14.0704L11.2578 16.4821C11.1537 16.5869 11.03 16.6701 10.8936 16.7268C10.7572 16.7835 10.611 16.8127 10.4633 16.8126C10.3414 16.8126 10.2203 16.7929 10.1047 16.7542C9.90618 16.6886 9.73 16.5687 9.59606 16.4082C9.46212 16.2476 9.37575 16.0528 9.34671 15.8458L8.96913 13.1395L5.86062 10.031L3.1557 9.65337C2.94837 9.6243 2.75328 9.53795 2.59236 9.40404C2.43143 9.27013 2.31107 9.09397 2.2448 8.89539C2.17853 8.6968 2.16899 8.48367 2.21725 8.27995C2.26551 8.07624 2.36965 7.89003 2.51796 7.74228L4.92968 5.32916C5.03436 5.2241 5.15888 5.1409 5.29601 5.08441C5.43314 5.02792 5.58013 4.99926 5.72843 5.00009H9.82976L10.1651 4.6647C12.0411 2.78947 14.3016 2.70861 15.1862 2.76134C15.4604 2.77801 15.7191 2.89448 15.9134 3.08878C16.1077 3.28307 16.2242 3.54176 16.2409 3.81603C16.2922 4.69845 16.2113 6.959 14.3361 8.83494H14.3354ZM3.31249 8.53962L5.9246 8.90384L8.70476 6.12509H5.72843L3.31249 8.53962ZM6.92093 9.50009L9.49999 12.0792L13.5394 8.0397C14.0838 7.499 14.5062 6.84803 14.7781 6.13055C15.05 5.41307 15.1651 4.6457 15.1159 3.88002C14.3506 3.83256 13.584 3.94894 12.8672 4.2214C12.1505 4.49385 11.5002 4.9161 10.9597 5.45994L6.92093 9.50009ZM12.875 10.2953L10.0955 13.0748L10.4612 15.6876L12.875 13.2717V10.2953Z" fill="#FF0000"/>
</svg>
