<svg width="19" height="19" viewBox="0 0 19 19" fill="none" xmlns="http://www.w3.org/2000/svg">
<path d="M7.79638 13.574C7.76896 13.683 7.08341 16.2501 3.31255 16.2501C3.16337 16.2501 3.0203 16.1908 2.91481 16.0853C2.80932 15.9799 2.75005 15.8368 2.75005 15.6876C2.75005 11.9167 5.31716 11.2312 5.42615 11.2038C5.57095 11.1676 5.72419 11.1904 5.85216 11.2672C5.98014 11.344 6.07235 11.4685 6.10853 11.6133C6.14471 11.7581 6.12188 11.9114 6.04507 12.0394C5.96826 12.1673 5.84376 12.2595 5.69896 12.2957C5.63568 12.3133 4.12255 12.7556 3.90177 15.0984C6.24458 14.8776 6.68755 13.3673 6.70583 13.297C6.74313 13.1524 6.83635 13.0285 6.96498 12.9526C7.09361 12.8767 7.24712 12.855 7.39173 12.8923C7.53635 12.9296 7.66023 13.0228 7.73611 13.1515C7.812 13.2801 7.83368 13.4336 7.79638 13.5782V13.574ZM14.3354 8.83494L14.0001 9.17033V13.2717C14.0009 13.42 13.9722 13.567 13.9157 13.7041C13.8592 13.8412 13.776 13.9657 13.671 14.0704L11.2579 16.4821C11.1538 16.5869 11.03 16.6701 10.8936 16.7268C10.7573 16.7835 10.611 16.8127 10.4633 16.8126C10.3414 16.8126 10.2204 16.7929 10.1047 16.7542C9.90624 16.6886 9.73007 16.5687 9.59612 16.4082C9.46218 16.2476 9.37581 16.0528 9.34677 15.8458L8.96919 13.1395L5.86068 10.031L3.15576 9.65337C2.94844 9.6243 2.75334 9.53795 2.59242 9.40404C2.43149 9.27013 2.31113 9.09397 2.24486 8.89539C2.17859 8.6968 2.16905 8.48367 2.21731 8.27995C2.26557 8.07624 2.36971 7.89003 2.51802 7.74228L4.92974 5.32916C5.03442 5.2241 5.15895 5.1409 5.29607 5.08441C5.4332 5.02792 5.58019 4.99926 5.72849 5.00009H9.82982L10.1652 4.6647C12.0411 2.78947 14.3017 2.70861 15.1862 2.76134C15.4605 2.77801 15.7192 2.89448 15.9135 3.08878C16.1078 3.28307 16.2242 3.54176 16.2409 3.81603C16.2922 4.69845 16.2114 6.959 14.3361 8.83494H14.3354ZM3.31255 8.53962L5.92466 8.90384L8.70482 6.12509H5.72849L3.31255 8.53962ZM6.92099 9.50009L9.50005 12.0792L13.5395 8.0397C14.0839 7.499 14.5062 6.84803 14.7781 6.13055C15.05 5.41307 15.1652 4.6457 15.1159 3.88002C14.3506 3.83256 13.584 3.94894 12.8673 4.2214C12.1506 4.49385 11.5003 4.9161 10.9597 5.45994L6.92099 9.50009ZM12.8751 10.2953L10.0956 13.0748L10.4612 15.6876L12.8751 13.2717V10.2953Z" fill="#FF0000"/>
</svg>
