<svg width="30" height="31" viewBox="0 0 30 31" fill="none" xmlns="http://www.w3.org/2000/svg">
<rect y="0.333008" width="30" height="30" rx="15" fill="#E5E7EB"/>
<g clip-path="url(#clip0_29_4706)">
<path fill-rule="evenodd" clip-rule="evenodd" d="M20.7802 14.8028C21.073 15.0956 21.073 15.5704 20.7802 15.8633L15.5302 21.1133C15.2374 21.406 14.7626 21.406 14.4697 21.1133L9.21975 15.8633C9.07888 15.7228 8.99979 15.532 9 15.333V11.583C9 10.3412 10.0082 9.33301 11.25 9.33301H15C15.192 9.33301 15.384 9.40651 15.5302 9.55276L20.7802 14.8028M11.25 12.333C11.6639 12.333 12 11.9969 12 11.583C12 11.1691 11.6639 10.833 11.25 10.833C10.8361 10.833 10.5 11.1691 10.5 11.583C10.5 11.9969 10.8361 12.333 11.25 12.333" fill="#374151"/>
</g>
<defs>
<clipPath id="clip0_29_4706">
<rect width="15" height="15" fill="white" transform="translate(7.5 7.83301)"/>
</clipPath>
</defs>
</svg>
