<svg width="21" height="21" viewBox="0 0 21 21" fill="none" xmlns="http://www.w3.org/2000/svg">
<g clip-path="url(#clip0_29_4318)">
<path d="M2.4375 3.66699C2.4375 3.11508 2.88558 2.66699 3.4375 2.66699H5.5905C6.07932 2.66722 6.49633 3.02079 6.5765 3.50299L7.3165 7.93799C7.38909 8.37161 7.16995 8.80178 6.7765 8.99799L5.2285 9.77099C6.35011 12.5505 8.55395 14.7544 11.3335 15.876L12.1075 14.328C12.3036 13.9349 12.7332 13.7159 13.1665 13.788L17.6015 14.528C18.0837 14.6082 18.4373 15.0252 18.4375 15.514V17.667C18.4375 18.2189 17.9894 18.667 17.4375 18.667H15.4375C8.2575 18.667 2.4375 12.847 2.4375 5.66699V3.66699" fill="#EC5757"/>
</g>
<defs>
<clipPath id="clip0_29_4318">
<rect width="20" height="20" fill="white" transform="translate(0.4375 0.666992)"/>
</clipPath>
</defs>
</svg>
