<svg width="19" height="19" viewBox="0 0 19 19" fill="none" xmlns="http://www.w3.org/2000/svg">
<g clip-path="url(#clip0_29_3882)">
<path d="M16.1751 6.00173C16.1865 6.16162 16.1865 6.32155 16.1865 6.48144C16.1865 11.3583 12.4746 16.9776 5.69036 16.9776C3.60025 16.9776 1.65864 16.3723 0.0253906 15.3216C0.322355 15.3558 0.607859 15.3672 0.91625 15.3672C2.64084 15.3672 4.22843 14.7848 5.4962 13.7911C3.87437 13.7568 2.51523 12.6946 2.04695 11.2327C2.27539 11.2669 2.5038 11.2898 2.74367 11.2898C3.07488 11.2898 3.40612 11.2441 3.71448 11.1642C2.02413 10.8215 0.756324 9.33676 0.756324 7.54362V7.49795C1.24742 7.77206 1.81854 7.94338 2.42382 7.9662C1.43016 7.30375 0.779176 6.17305 0.779176 4.89386C0.779176 4.20859 0.961883 3.58042 1.2817 3.03219C3.0977 5.27077 5.8274 6.73267 8.88828 6.89259C8.83119 6.61848 8.79691 6.33298 8.79691 6.04744C8.79691 4.01442 10.4416 2.35835 12.486 2.35835C13.5482 2.35835 14.5076 2.80378 15.1814 3.52332C16.0152 3.36343 16.8146 3.05504 17.5228 2.63246C17.2486 3.48908 16.6662 4.20863 15.901 4.66545C16.6434 4.58554 17.3629 4.37991 18.0253 4.0944C17.5229 4.82534 16.8947 5.47632 16.1751 6.00173" fill="#1DA1F3"/>
</g>
<defs>
<clipPath id="clip0_29_3882">
<rect width="18" height="18" fill="white" transform="translate(0.0253906 0.667969)"/>
</clipPath>
</defs>
</svg>
