<svg width="21" height="22" viewBox="0 0 21 22" fill="none" xmlns="http://www.w3.org/2000/svg">
<path d="M18.0779 21.9846C17.5516 21.9847 17.0468 21.776 16.6743 21.4044C16.3019 21.0327 16.0922 20.5285 16.0914 20.0024V8.72963C16.092 8.20411 16.3011 7.70027 16.6729 7.32866C17.0446 6.95705 17.5487 6.74803 18.0744 6.74742H18.0779C18.6037 6.74803 19.1077 6.95705 19.4795 7.32866C19.8512 7.70027 20.0603 8.20411 20.0609 8.72963V20.0024C20.0603 20.5279 19.8512 21.0317 19.4795 21.4033C19.1077 21.775 18.6037 21.984 18.0779 21.9846ZM12.9002 21.9846C12.6377 21.9872 12.3772 21.938 12.1339 21.8396C11.8905 21.7413 11.669 21.5958 11.482 21.4116C11.2951 21.2274 11.1464 21.0081 11.0446 20.7662C10.9428 20.5244 10.8898 20.2648 10.8887 20.0024V13.93C10.8893 13.4046 11.0984 12.9007 11.4701 12.5292C11.8419 12.1576 12.3459 11.9486 12.8716 11.9481H12.9002C13.4259 11.9486 13.9299 12.1576 14.3017 12.5292C14.6735 12.9007 14.8826 13.4046 14.8831 13.93V20.0024C14.8826 20.5279 14.6735 21.0317 14.3017 21.4033C13.93 21.775 13.4259 21.984 12.9002 21.9846ZM7.67241 21.9846C7.14611 21.9847 6.64128 21.776 6.26881 21.4044C5.89634 21.0327 5.68668 20.5285 5.68591 20.0024V2.6658C5.68648 2.14028 5.89559 1.63646 6.26735 1.26485C6.6391 0.893243 7.14314 0.6842 7.66889 0.683594H7.67241C8.19817 0.6842 8.70221 0.893243 9.07396 1.26485C9.44571 1.63646 9.65482 2.14028 9.6554 2.6658V20.0024C9.65482 20.5279 9.44571 21.0317 9.07396 21.4033C8.70221 21.775 8.19817 21.984 7.67241 21.9846ZM2.46454 21.9846C2.20382 21.9849 1.9456 21.9338 1.70468 21.8342C1.46375 21.7346 1.24484 21.5885 1.06046 21.4042C0.876088 21.22 0.729874 21.0012 0.630184 20.7604C0.530494 20.5196 0.479285 20.2615 0.479493 20.0009L0.48168 17.3971C0.481907 16.8714 0.691041 16.3674 1.06307 15.9958C1.4351 15.6243 1.93955 15.4157 2.46545 15.4159C2.99135 15.4161 3.49563 15.6252 3.86734 15.997C4.23904 16.3689 4.44774 16.8731 4.44752 17.3988V20.0024C4.44694 20.5279 4.23783 21.0317 3.86608 21.4033C3.49433 21.775 2.99029 21.984 2.46454 21.9846Z" fill="#EC5757"/>
</svg>
