<svg width="41" height="41" viewBox="0 0 41 41" fill="none" xmlns="http://www.w3.org/2000/svg">
<path d="M20.8376 40.9871C16.8621 40.9871 12.976 39.8088 9.67049 37.6011C6.36501 35.3935 3.7887 32.2557 2.26736 28.5845C0.746022 24.9133 0.347959 20.8736 1.12353 16.9763C1.8991 13.079 3.81349 9.49908 6.62456 6.68927C9.43563 3.87946 13.0171 1.96597 16.9162 1.19075C20.8153 0.415525 24.8568 0.813377 28.5296 2.33403C32.2025 3.85469 35.3417 6.42984 37.5503 9.73383C39.759 13.0378 40.9378 16.9222 40.9378 20.8959C40.9318 26.2226 38.8122 31.3294 35.044 35.0959C31.2757 38.8624 26.1667 40.9811 20.8376 40.9871ZM20.8376 2.19031C17.1363 2.19031 13.5181 3.28737 10.4406 5.34277C7.36311 7.39817 4.96449 10.3196 3.54807 13.7376C2.13165 17.1556 1.76106 20.9167 2.48315 24.5452C3.20523 28.1737 4.98755 31.5068 7.60475 34.1228C10.222 36.7388 13.5565 38.5204 17.1866 39.2421C20.8168 39.9639 24.5796 39.5934 27.9991 38.1777C31.4187 36.7619 34.3414 34.3643 36.3977 31.2882C38.4541 28.2121 39.5516 24.5955 39.5516 20.8959C39.546 15.9366 37.5725 11.182 34.0642 7.67526C30.5559 4.16849 25.7991 2.19594 20.8376 2.19031Z" fill="#563D3D"/>
</svg>
