<svg width="41" height="41" viewBox="0 0 41 41" fill="none" xmlns="http://www.w3.org/2000/svg">
<path d="M20.2702 40.4256C16.2947 40.4256 12.4086 39.2473 9.10309 37.0396C5.79762 34.832 3.22131 31.6942 1.69997 28.023C0.178626 24.3518 -0.219419 20.3121 0.556153 16.4148C1.33173 12.5175 3.24609 8.93756 6.05716 6.12776C8.86824 3.31795 12.4497 1.40445 16.3488 0.629222C20.2479 -0.146003 24.2894 0.251866 27.9622 1.77252C31.6351 3.29318 34.7743 5.86833 36.9829 9.17231C39.1916 12.4763 40.3705 16.3607 40.3705 20.3344C40.3644 25.6611 38.2448 30.7679 34.4766 34.5344C30.7084 38.3009 25.5993 40.4196 20.2702 40.4256ZM20.2702 1.62878C16.5689 1.62878 12.9507 2.72585 9.87323 4.78125C6.79572 6.83664 4.3971 9.75806 2.98068 13.1761C1.56425 16.5941 1.19365 20.3551 1.91574 23.9837C2.63782 27.6122 4.42017 30.9452 7.03737 33.5613C9.65458 36.1773 12.9891 37.9588 16.6193 38.6806C20.2494 39.4023 24.0122 39.0319 27.4317 37.6161C30.8513 36.2004 33.774 33.8028 35.8304 30.7267C37.8867 27.6506 38.9842 24.034 38.9842 20.3344C38.9786 15.3751 37.0051 10.6205 33.4968 7.11373C29.9885 3.60696 25.2317 1.6344 20.2702 1.62878Z" fill="#563D3D"/>
</svg>
