<svg width="42" height="41" viewBox="0 0 42 41" fill="none" xmlns="http://www.w3.org/2000/svg">
<path d="M20.9587 40.8446C16.9832 40.8446 13.097 39.6662 9.79155 37.4586C6.48608 35.2509 3.9098 32.1131 2.38846 28.4419C0.867115 24.7707 0.469053 20.7311 1.24463 16.8337C2.0202 12.9364 3.93455 9.35651 6.74562 6.5467C9.55669 3.73689 13.1382 1.82339 17.0373 1.04817C20.9364 0.272942 24.9779 0.670811 28.6507 2.19147C32.3236 3.71212 35.4628 6.28728 37.6714 9.59126C39.88 12.8952 41.0589 16.7797 41.0589 20.7533C41.0529 26.08 38.9333 31.1868 35.1651 34.9533C31.3968 38.7199 26.2877 40.8385 20.9587 40.8446Z" fill="#E6E6E6"/>
</svg>
