<svg width="41" height="41" viewBox="0 0 41 41" fill="none" xmlns="http://www.w3.org/2000/svg">
<path d="M20.1862 40.7176C16.2108 40.7176 12.3246 39.5393 9.01912 37.3316C5.71365 35.124 3.13734 31.9861 1.616 28.3149C0.094654 24.6438 -0.303408 20.6041 0.472164 16.7068C1.24774 12.8094 3.16212 9.22954 5.97319 6.41974C8.78426 3.60993 12.3658 1.69644 16.2648 0.921218C20.1639 0.145993 24.2054 0.543846 27.8783 2.0645C31.5511 3.58516 34.6903 6.16031 36.8989 9.4643C39.1076 12.7683 40.2865 16.6527 40.2865 20.6264C40.2805 25.9531 38.1608 31.0598 34.3926 34.8264C30.6244 38.5929 25.5153 40.7116 20.1862 40.7176ZM20.1862 1.92078C16.4849 1.92078 12.8668 3.01781 9.78925 5.07321C6.71175 7.12861 4.31312 10.0501 2.8967 13.4681C1.48028 16.8861 1.10969 20.6471 1.83178 24.2756C2.55386 27.9042 4.33618 31.2372 6.95338 33.8532C9.57059 36.4693 12.9051 38.2508 16.5353 38.9726C20.1654 39.6943 23.9282 39.3239 27.3478 37.9081C30.7673 36.4923 33.69 34.0948 35.7464 31.0187C37.8027 27.9425 38.9002 24.326 38.9002 20.6264C38.8946 15.6671 36.9212 10.9125 33.4128 7.40573C29.9045 3.89896 25.1478 1.92639 20.1862 1.92078Z" fill="#563D3D"/>
</svg>
