<svg width="65" height="71" viewBox="0 0 65 71" fill="none" xmlns="http://www.w3.org/2000/svg">
<path d="M51.1024 32.5817C51.1614 32.5289 51.2073 32.463 51.2363 32.3893C51.2654 32.3157 51.2769 32.2362 51.2699 32.1574C51.2629 32.0785 51.2376 32.0023 51.1961 31.9349C51.1545 31.8675 51.0978 31.8107 51.0304 31.769C49.9335 31.09 49.0397 30.1282 48.4431 28.9847C47.8465 27.8412 47.569 26.5582 47.6399 25.2705C47.7107 23.9827 48.1271 22.7379 48.8455 21.6666C49.5639 20.5953 50.5577 19.7372 51.7225 19.1825C55.3542 17.4517 60.2754 18.7982 62.9601 15.4723C63.5061 14.7607 63.8922 13.9398 64.0921 13.0656C64.2919 12.1914 64.3008 11.2844 64.1182 10.4064C63.5389 7.26503 61.1763 4.93221 58.5305 3.33345C55.2802 1.36948 51.5446 0.354693 47.7469 0.404063C43.9492 0.453433 40.2413 1.56499 37.0433 3.61278C33.8452 5.66058 31.2849 8.56274 29.6524 11.9904C28.0199 15.4182 27.3804 19.2344 27.8066 23.0067C28.1481 26.0301 29.0814 29.4201 27.2829 31.8748C25.7 34.0352 22.7121 34.4403 20.0875 34.9771C14.4581 36.1284 9.02709 38.7845 5.20685 43.0748C1.38662 47.3651 -0.651369 53.3845 0.500443 59.0114C1.65225 64.6383 6.27317 69.5835 11.9526 70.4557C16.5754 71.1656 21.3488 69.2032 24.7435 65.9875C28.1383 62.7717 30.2841 58.429 31.6375 53.9541C33.244 48.6428 33.8777 42.9195 36.778 38.1882C39.6161 33.5584 45.7322 30.2396 50.5257 32.6507C50.6176 32.6987 50.7218 32.7178 50.8247 32.7055C50.9277 32.6931 51.0244 32.65 51.1024 32.5817Z" fill="#412E2E"/>
</svg>
