<svg width="25" height="15" viewBox="0 0 25 15" fill="none" xmlns="http://www.w3.org/2000/svg">
<path d="M2.00724 14.6166C1.71837 14.6165 1.43599 14.5309 1.19577 14.3706C0.955546 14.2102 0.768255 13.9823 0.657533 13.7156C0.546811 13.4489 0.517627 13.1554 0.573671 12.8721C0.629714 12.5889 0.768479 12.3286 0.972426 12.1241L8.39926 4.67974C8.51484 4.56325 8.65244 4.47086 8.80403 4.40794C8.95562 4.34503 9.1182 4.31284 9.28233 4.31324H9.28317C9.44714 4.31276 9.60957 4.34481 9.76106 4.40751C9.91255 4.47021 10.0501 4.56233 10.1657 4.67853L13.6102 8.12143C13.6796 8.1912 13.7621 8.24652 13.853 8.28417C13.944 8.32182 14.0415 8.34106 14.1399 8.34076C14.2383 8.34104 14.3361 8.32178 14.427 8.28409C14.5179 8.2464 14.6005 8.19102 14.6698 8.12118L19.5328 3.25218C19.556 3.229 19.5744 3.20149 19.5869 3.17121C19.5994 3.14092 19.6058 3.10845 19.6058 3.07568C19.6058 3.0429 19.5993 3.01046 19.5867 2.9802C19.5741 2.94994 19.5557 2.92245 19.5324 2.89931L17.959 1.32921C17.8541 1.22458 17.7827 1.09119 17.7536 0.945937C17.7246 0.80068 17.7393 0.650076 17.796 0.513198C17.8526 0.37632 17.9486 0.259315 18.0718 0.177C18.195 0.0946848 18.3399 0.0507599 18.4881 0.0507813H24.0767C24.2753 0.0509988 24.4656 0.129946 24.606 0.270294C24.7464 0.410641 24.8254 0.600932 24.8256 0.799413V6.38195C24.8257 6.53003 24.7818 6.6748 24.6995 6.79794C24.6172 6.92108 24.5003 7.01706 24.3634 7.07375C24.2266 7.13044 24.0759 7.14528 23.9306 7.1164C23.7853 7.08752 23.6519 7.01621 23.5471 6.9115L21.9713 5.33627C21.9481 5.31309 21.9206 5.2947 21.8903 5.28215C21.86 5.26961 21.8276 5.26317 21.7948 5.26317C21.762 5.26317 21.7296 5.26961 21.6993 5.28215C21.669 5.2947 21.6414 5.31309 21.6183 5.33627L15.033 11.9141C14.9174 12.0302 14.7799 12.1224 14.6284 12.1851C14.4769 12.2478 14.3145 12.2798 14.1506 12.2793C13.9866 12.2798 13.8241 12.2477 13.6726 12.1849C13.5211 12.1222 13.3835 12.03 13.2679 11.9138L9.82173 8.4692C9.67902 8.33311 9.48938 8.25719 9.29215 8.25719C9.09491 8.25719 8.90524 8.33311 8.76253 8.4692L3.04061 14.1885C2.90526 14.3246 2.74422 14.4326 2.56684 14.506C2.38945 14.5795 2.19926 14.6171 2.00724 14.6166Z" fill="#EC5757"/>
</svg>
