<svg width="18" height="19" viewBox="0 0 18 19" fill="none" xmlns="http://www.w3.org/2000/svg">
<path d="M16.44 5.465C16.3639 5.28174 16.2183 5.13611 16.035 5.06C15.9448 5.02157 15.848 5.00118 15.75 5H12C11.8011 5 11.6103 5.07902 11.4697 5.21967C11.329 5.36032 11.25 5.55109 11.25 5.75C11.25 5.94891 11.329 6.13968 11.4697 6.28033C11.6103 6.42098 11.8011 6.5 12 6.5H13.9425L9.75002 10.6925L7.28252 8.2175C7.21279 8.1472 7.12984 8.09141 7.03845 8.05333C6.94705 8.01526 6.84902 7.99565 6.75002 7.99565C6.65101 7.99565 6.55298 8.01526 6.46158 8.05333C6.37019 8.09141 6.28724 8.1472 6.21752 8.2175L1.71752 12.7175C1.64722 12.7872 1.59142 12.8702 1.55335 12.9616C1.51527 13.053 1.49567 13.151 1.49567 13.25C1.49567 13.349 1.51527 13.447 1.55335 13.5384C1.59142 13.6298 1.64722 13.7128 1.71752 13.7825C1.78724 13.8528 1.87019 13.9086 1.96158 13.9467C2.05298 13.9847 2.15101 14.0043 2.25002 14.0043C2.34902 14.0043 2.44705 13.9847 2.53845 13.9467C2.62984 13.9086 2.71279 13.8528 2.78252 13.7825L6.75002 9.8075L9.21752 12.2825C9.28724 12.3528 9.37019 12.4086 9.46158 12.4467C9.55298 12.4847 9.65101 12.5043 9.75002 12.5043C9.84902 12.5043 9.94705 12.4847 10.0384 12.4467C10.1298 12.4086 10.2128 12.3528 10.2825 12.2825L15 7.5575V9.5C15 9.69891 15.079 9.88968 15.2197 10.0303C15.3603 10.171 15.5511 10.25 15.75 10.25C15.9489 10.25 16.1397 10.171 16.2803 10.0303C16.421 9.88968 16.5 9.69891 16.5 9.5V5.75C16.4988 5.65199 16.4784 5.55517 16.44 5.465V5.465Z" fill="#818187"/>
</svg>
