<svg width="18" height="19" viewBox="0 0 18 19" fill="none" xmlns="http://www.w3.org/2000/svg">
<path d="M7.29589 13.574C7.26847 13.683 6.58292 16.2501 2.81207 16.2501C2.66288 16.2501 2.51981 16.1908 2.41432 16.0853C2.30883 15.9799 2.24957 15.8368 2.24957 15.6876C2.24957 11.9167 4.81667 11.2312 4.92566 11.2038C5.07046 11.1676 5.2237 11.1904 5.35168 11.2672C5.47965 11.344 5.57186 11.4685 5.60804 11.6133C5.64422 11.7581 5.62139 11.9114 5.54458 12.0394C5.46777 12.1673 5.34327 12.2595 5.19847 12.2957C5.13519 12.3133 3.62207 12.7556 3.40128 15.0984C5.7441 14.8776 6.18707 13.3673 6.20535 13.297C6.24264 13.1524 6.33586 13.0285 6.46449 12.9526C6.59312 12.8767 6.74663 12.855 6.89124 12.8923C7.03586 12.9296 7.15974 13.0228 7.23562 13.1515C7.31151 13.2801 7.33319 13.4336 7.29589 13.5782V13.574ZM13.835 8.83494L13.4996 9.17033V13.2717C13.5004 13.42 13.4717 13.567 13.4152 13.7041C13.3588 13.8412 13.2756 13.9657 13.1705 14.0704L10.7574 16.4821C10.6533 16.5869 10.5295 16.6701 10.3932 16.7268C10.2568 16.7835 10.1105 16.8127 9.96285 16.8126C9.84095 16.8126 9.71987 16.7929 9.60425 16.7542C9.40575 16.6886 9.22958 16.5687 9.09563 16.4082C8.96169 16.2476 8.87532 16.0528 8.84628 15.8458L8.46871 13.1395L5.36019 10.031L2.65527 9.65337C2.44795 9.6243 2.25285 9.53795 2.09193 9.40404C1.93101 9.27013 1.81064 9.09397 1.74437 8.89539C1.6781 8.6968 1.66856 8.48367 1.71682 8.27995C1.76508 8.07624 1.86922 7.89003 2.01753 7.74228L4.42925 5.32916C4.53393 5.2241 4.65846 5.1409 4.79558 5.08441C4.93271 5.02792 5.0797 4.99926 5.228 5.00009H9.32933L9.66472 4.6647C11.5407 2.78947 13.8012 2.70861 14.6857 2.76134C14.96 2.77801 15.2187 2.89448 15.413 3.08878C15.6073 3.28307 15.7238 3.54176 15.7404 3.81603C15.7918 4.69845 15.7109 6.959 13.8357 8.83494H13.835ZM2.81207 8.53962L5.42417 8.90384L8.20433 6.12509H5.228L2.81207 8.53962ZM6.4205 9.50009L8.99957 12.0792L13.039 8.0397C13.5834 7.499 14.0057 6.84803 14.2776 6.13055C14.5495 5.41307 14.6647 4.6457 14.6154 3.88002C13.8501 3.83256 13.0835 3.94894 12.3668 4.2214C11.6501 4.49385 10.9998 4.9161 10.4593 5.45994L6.4205 9.50009ZM12.3746 10.2953L9.59511 13.0748L9.96074 15.6876L12.3746 13.2717V10.2953Z" fill="#818187"/>
</svg>
