<svg width="24" height="25" viewBox="0 0 24 25" fill="none" xmlns="http://www.w3.org/2000/svg">
<g clip-path="url(#clip0_29_3105)">
<path d="M15 17.5H20L18.595 16.095C18.2139 15.7139 17.9999 15.197 18 14.658V11.5C18.0003 8.95671 16.3976 6.68933 14 5.841V5.5C14 4.78547 13.6188 4.12521 13 3.76795C12.3812 3.41068 11.6188 3.41068 11 3.76795C10.3812 4.12521 10 4.78547 10 5.5V5.841C7.67 6.665 6 8.888 6 11.5V14.659C6 15.197 5.786 15.714 5.405 16.095L4 17.5H9M15 17.5V18.5C15 20.1557 13.6557 21.5 12 21.5C10.3443 21.5 9 20.1557 9 18.5V17.5M15 17.5H9" stroke="#6B7280" stroke-width="2" stroke-linecap="round" stroke-linejoin="round"/>
</g>
<defs>
<clipPath id="clip0_29_3105">
<rect width="24" height="24" fill="white" transform="translate(0 0.5)"/>
</clipPath>
</defs>
</svg>
