<svg width="41" height="42" viewBox="0 0 41 42" fill="none" xmlns="http://www.w3.org/2000/svg">
<path d="M20.6862 41.1053C16.7107 41.1053 12.8246 39.927 9.51909 37.7193C6.21361 35.5117 3.63734 32.3739 2.116 28.7027C0.594654 25.0315 0.196592 20.9918 0.972164 17.0945C1.74774 13.1972 3.66209 9.61725 6.47316 6.80744C9.28423 3.99764 12.8658 2.08413 16.7648 1.30891C20.6639 0.533685 24.7054 0.931554 28.3782 2.45221C32.0511 3.97287 35.1903 6.54802 37.3989 9.852C39.6076 13.156 40.7865 17.0404 40.7865 21.0141C40.7805 26.3408 38.6608 31.4476 34.8926 35.2141C31.1244 38.9806 26.0153 41.0993 20.6862 41.1053Z" fill="#E6E6E6"/>
</svg>
