<svg width="21" height="13" viewBox="0 0 21 13" fill="none" xmlns="http://www.w3.org/2000/svg">
<path d="M3.93739 7.87741C4.50919 7.8774 5.05758 8.10444 5.4619 8.50858C5.86622 8.91272 6.09336 9.46087 6.09336 10.0324V10.3095L8.79142 11.8192C9.1764 11.5035 9.65901 11.331 10.157 11.3312C10.3141 11.3323 10.4707 11.3489 10.6246 11.3808L14.5516 5.30464C14.3555 5.02917 14.2273 4.71131 14.1773 4.37691C14.1273 4.04251 14.1571 3.70104 14.2641 3.38031C14.3712 3.05958 14.5525 2.76867 14.7933 2.53123C15.0341 2.29379 15.3276 2.11654 15.6499 2.01394C15.9722 1.91134 16.3142 1.88628 16.648 1.94079C16.9819 1.99531 17.2981 2.12785 17.571 2.32763C17.8439 2.52742 18.0657 2.78882 18.2184 3.09051C18.3711 3.3922 18.4504 3.72566 18.4497 4.06377C18.4496 4.23499 18.4301 4.40565 18.3918 4.57253L20.2498 5.8134V2.21902C20.2476 1.71068 20.0447 1.22378 19.685 0.864325C19.3254 0.504871 18.8383 0.301981 18.3297 0.299805H2.038C1.52982 0.301991 1.04313 0.505012 0.684175 0.864582C0.32522 1.22415 0.123158 1.71106 0.12207 2.21902V12.5141L1.91801 10.7934C1.79798 10.4683 1.75834 10.1189 1.8025 9.77508C1.84665 9.43128 1.97327 9.10324 2.17159 8.81889C2.36991 8.53455 2.63405 8.30232 2.9415 8.142C3.24896 7.98167 3.59062 7.89798 3.93739 7.89808V7.87741Z" fill="#EC5757"/>
</svg>
