<svg width="41" height="41" viewBox="0 0 41 41" fill="none" xmlns="http://www.w3.org/2000/svg">
<path d="M24.6447 0.429147C23.371 0.174194 22.075 0.0471284 20.776 0.0498474C15.6077 0.044501 10.6354 2.02711 6.88987 5.58676C3.1443 9.1464 0.912626 14.0101 0.657387 19.1698C0.402148 24.3296 2.14292 29.3896 5.5189 33.3012C8.89488 37.2128 13.6472 39.6761 18.7908 40.1804C23.9345 40.6847 29.0751 39.1914 33.1471 36.01C37.2191 32.8286 39.9104 28.2031 40.663 23.0922C41.4157 17.9812 40.172 12.7768 37.1898 8.55749C34.2076 4.33823 29.7155 1.42769 24.6447 0.429147ZM26.0045 38.1062C23.4303 38.8546 20.7253 39.0416 18.0725 38.6544C15.4198 38.2672 12.8812 37.3148 10.6287 35.8618C8.3761 34.4088 6.46211 32.4891 5.01624 30.2326C3.57037 27.976 2.62637 25.4353 2.24813 22.7825C1.86989 20.1296 2.06623 17.4265 2.82387 14.856C3.58152 12.2856 4.88278 9.90785 6.63958 7.88373C8.39639 5.85961 10.5677 4.23634 13.0067 3.12383C15.4456 2.01131 18.0951 1.43549 20.776 1.43535C21.3296 1.43535 21.8777 1.46169 22.4204 1.50383C26.7684 1.8879 30.8454 3.77866 33.9463 6.84916C37.0473 9.91965 38.9772 13.9768 39.4024 18.319C39.8276 22.6612 38.7212 27.0153 36.2747 30.6285C33.8282 34.2417 30.1954 36.8868 26.0045 38.1062Z" fill="#563D3D"/>
</svg>
