<svg width="265" height="182" viewBox="0 0 265 182" fill="none" xmlns="http://www.w3.org/2000/svg">
<path d="M261.224 0H4.55452C3.5764 0.00108482 2.63864 0.389947 1.947 1.08128C1.25536 1.77261 0.86632 2.70994 0.865234 3.68763V177.533C0.86632 178.511 1.25536 179.448 1.947 180.139C2.63864 180.831 3.5764 181.22 4.55452 181.221H261.224C262.202 181.22 263.14 180.831 263.831 180.139C264.523 179.448 264.912 178.511 264.913 177.533V3.68763C264.912 2.70994 264.523 1.77261 263.831 1.08128C263.14 0.389947 262.202 0.00108482 261.224 0ZM263.859 177.533C263.859 178.232 263.581 178.901 263.087 179.395C262.593 179.889 261.922 180.167 261.224 180.167H4.55452C3.85571 180.167 3.1856 179.889 2.69146 179.395C2.19733 178.901 1.9196 178.232 1.91932 177.533V3.68763C1.9196 2.98913 2.19733 2.31932 2.69146 1.82541C3.1856 1.33149 3.85571 1.05389 4.55452 1.05361H261.224C261.922 1.05389 262.593 1.33149 263.087 1.82541C263.581 2.31932 263.859 2.98913 263.859 3.68763V177.533Z" fill="#563D3D"/>
</svg>
