<svg width="31" height="42" viewBox="0 0 31 42" fill="none" xmlns="http://www.w3.org/2000/svg">
<path d="M10.2703 0.922852C6.82003 0.927261 3.42855 1.81601 0.419922 3.50419C4.76787 3.88825 8.84485 5.77904 11.9458 8.84953C15.0467 11.92 16.9767 15.9772 17.4019 20.3193C17.827 24.6615 16.7207 29.0157 14.2742 32.6289C11.8277 36.2421 8.1949 38.8871 4.00396 40.1066C4.78901 40.3666 5.58997 40.576 6.40189 40.7334C7.67606 40.984 8.97171 41.1093 10.2703 41.1075C15.6015 41.1075 20.7144 38.9906 24.4841 35.2226C28.2538 31.4545 30.3717 26.344 30.3717 21.0152C30.3717 15.6864 28.2538 10.5758 24.4841 6.80776C20.7144 3.03972 15.6015 0.922852 10.2703 0.922852Z" fill="#E6E6E6"/>
</svg>
