<svg width="49" height="49" viewBox="0 0 49 49" fill="none" xmlns="http://www.w3.org/2000/svg">
<circle cx="24.5" cy="24.5" r="24" fill="#E0FAF5"/>
<path d="M27.0001 15.6669C25.6359 15.668 24.3153 16.1472 23.2678 17.0211C22.2203 17.895 21.5123 19.1084 21.2667 20.4502C20.5487 20.8376 19.9365 21.3947 19.4833 22.0731C19.0301 22.7514 18.7497 23.5303 18.6667 24.3419C18.0465 24.6147 17.5022 25.0347 17.0809 25.5653C16.6597 26.096 16.3742 26.7215 16.2492 27.3874C16.1242 28.0533 16.1636 28.7397 16.3638 29.387C16.564 30.0343 16.919 30.623 17.3981 31.1022C17.8772 31.5813 18.466 31.9363 19.1133 32.1365C19.7606 32.3367 20.4469 32.376 21.1129 32.2511C21.7788 32.1261 22.4042 31.8406 22.9349 31.4194C23.4656 30.9981 23.8856 30.4538 24.1584 29.8336C24.9676 29.7532 25.7449 29.4766 26.423 29.0279C27.1012 28.5792 27.6597 27.9719 28.0501 27.2586C29.5092 27.0245 30.825 26.2454 31.7319 25.0786C32.6387 23.9118 33.069 22.4443 32.9357 20.9726C32.8023 19.5009 32.1154 18.1346 31.0137 17.1498C29.9119 16.1649 28.4775 15.635 27.0001 15.6669V15.6669ZM22.8334 28.5252C22.8334 28.6086 22.8334 28.6919 22.7751 28.7836C22.6674 29.2125 22.4479 29.6052 22.139 29.9216C21.8301 30.238 21.4427 30.4668 21.0165 30.5846C20.5903 30.7025 20.1404 30.7052 19.7128 30.5924C19.2852 30.4797 18.8952 30.2555 18.5825 29.9428C18.2698 29.6301 18.0456 29.2401 17.9329 28.8125C17.8201 28.3849 17.8228 27.935 17.9407 27.5088C18.0585 27.0826 18.2873 26.6952 18.6037 26.3863C18.9201 26.0773 19.3128 25.8579 19.7417 25.7502V25.7502L19.9751 25.6669C20.3664 25.5938 20.7696 25.6171 21.1499 25.7349C21.5302 25.8526 21.876 26.0613 22.1575 26.3428C22.439 26.6243 22.6476 26.9701 22.7654 27.3504C22.8832 27.7307 22.9065 28.1339 22.8334 28.5252ZM27.0001 25.4669C26.9891 25.5204 26.9752 25.5732 26.9584 25.6252C26.9226 25.7786 26.8752 25.929 26.8167 26.0752C26.6249 26.5617 26.3212 26.9963 25.9304 27.3437C25.5395 27.6911 25.0724 27.9417 24.5667 28.0752C24.5667 27.9252 24.5667 27.7836 24.5167 27.6336C24.4667 27.4836 24.5167 27.4086 24.5167 27.3002C24.5167 27.1919 24.4167 26.9836 24.3667 26.8252C24.3167 26.6669 24.3084 26.6252 24.2667 26.5252C24.1949 26.3664 24.1113 26.2132 24.0167 26.0669C24.0167 25.9919 23.9417 25.9086 23.8917 25.8336C23.7435 25.6163 23.5762 25.4127 23.3917 25.2252L23.2251 25.0836C23.0854 24.9551 22.9379 24.8354 22.7834 24.7252C22.6926 24.6662 22.5979 24.6133 22.5001 24.5669C22.3667 24.4821 22.2274 24.4069 22.0834 24.3419C21.9758 24.2958 21.8642 24.2596 21.7501 24.2336C21.6098 24.1766 21.4648 24.132 21.3167 24.1002C21.2001 24.1002 21.0751 24.1002 20.9501 24.0502L20.4417 24.0002C20.5744 23.4954 20.8237 23.0289 21.1696 22.6381C21.5156 22.2473 21.9484 21.9432 22.4334 21.7502C22.5763 21.6905 22.7241 21.6431 22.8751 21.6086L23.0417 21.5669C23.2473 21.5237 23.4567 21.5013 23.6667 21.5002C24.5508 21.5002 25.3986 21.8514 26.0237 22.4765C26.6489 23.1017 27.0001 23.9495 27.0001 24.8336C26.9989 25.0464 26.9766 25.2585 26.9334 25.4669H27.0001ZM28.6667 25.3336C28.6667 25.1669 28.6667 25.0002 28.6667 24.8336C28.6667 23.5075 28.1399 22.2357 27.2023 21.298C26.2646 20.3603 24.9928 19.8336 23.6667 19.8336C23.5001 19.8336 23.3334 19.8336 23.1667 19.8336C23.4414 19.2157 23.8623 18.6739 24.3932 18.2551C24.924 17.8363 25.5488 17.5529 26.2137 17.4295C26.8785 17.3061 27.5633 17.3463 28.2091 17.5468C28.8549 17.7472 29.4422 18.1018 29.9204 18.5799C30.3985 19.058 30.7531 19.6453 30.9535 20.2911C31.154 20.9369 31.1942 21.6218 31.0708 22.2866C30.9474 22.9515 30.664 23.5763 30.2452 24.1071C29.8263 24.6379 29.2846 25.0589 28.6667 25.3336V25.3336Z" fill="#00D5AA"/>
</svg>
