<svg width="21" height="21" viewBox="0 0 21 21" fill="none" xmlns="http://www.w3.org/2000/svg">
<g clip-path="url(#clip0_29_4310)">
<path fill-rule="evenodd" clip-rule="evenodd" d="M5.4875 4.71699C8.21948 1.98501 12.6555 1.98501 15.3875 4.71699C18.1195 7.44897 18.1195 11.885 15.3875 14.617L10.4375 19.567L5.4875 14.617C4.17459 13.3042 3.437 11.5236 3.437 9.66699C3.437 7.81035 4.17459 6.02977 5.4875 4.71699M10.4375 11.667C11.5413 11.667 12.4375 10.7708 12.4375 9.66699C12.4375 8.56316 11.5413 7.66699 10.4375 7.66699C9.33367 7.66699 8.4375 8.56316 8.4375 9.66699C8.4375 10.7708 9.33367 11.667 10.4375 11.667" fill="#EC5757"/>
</g>
<defs>
<clipPath id="clip0_29_4310">
<rect width="20" height="20" fill="white" transform="translate(0.4375 0.666992)"/>
</clipPath>
</defs>
</svg>
